solid Housing
facet normal -0.0 -0.0 1.0
  outer loop
    vertex 42.001739441441615 74.27520396127049 0.7
    vertex 25.00173944144161 95.27520396127049 0.7
    vertex 25.00173944144161 74.27520396127049 0.7
  endloop
endfacet
facet normal -0.0 -0.0 1.0
  outer loop
    vertex 25.00173944144161 95.27520396127049 0.7
    vertex 42.001739441441615 74.27520396127049 0.7
    vertex 42.001739441441615 95.27520396127049 0.7
  endloop
endfacet
facet normal -0.0 -0.0 1.0
  outer loop
    vertex 25.001739441441615 44.475203961270495 0.7
    vertex 42.001739441441615 73.4752039612705 0.7
    vertex 25.00173944144161 73.4752039612705 0.7
  endloop
endfacet
facet normal -0.0 -0.0 1.0
  outer loop
    vertex 42.001739441441615 73.4752039612705 0.7
    vertex 25.001739441441615 44.475203961270495 0.7
    vertex 42.001739441441615 44.475203961270495 0.7
  endloop
endfacet
facet normal -0.0 -0.0 1.0
  outer loop
    vertex 42.80173944144161 91.27520396127048 12.7
    vertex 42.001739441441615 95.27520396127049 12.7
    vertex 42.001739441441615 91.27520396127048 12.7
  endloop
endfacet
facet normal -0.0 -0.0 1.0
  outer loop
    vertex 42.001739441441615 95.27520396127049 12.7
    vertex 42.80173944144161 91.27520396127048 12.7
    vertex 42.80173944144161 95.27520396127049 12.7
  endloop
endfacet
facet normal 0.0 -1.0 0.0
  outer loop
    vertex 61.80173944144161 21.875203961270493 24.7
    vertex 24.20173944144161 21.875203961270493 0.0
    vertex 61.80173944144161 21.875203961270493 0.0
  endloop
endfacet
facet normal 0.0 -1.0 0.0
  outer loop
    vertex 24.20173944144161 21.875203961270493 0.0
    vertex 61.80173944144161 21.875203961270493 24.7
    vertex 24.20173944144161 21.875203961270493 24.7
  endloop
endfacet
facet normal -1.0 0.0 0.0
  outer loop
    vertex 24.20173944144161 21.875203961270493 24.7
    vertex 24.20173944144161 31.407437008304132 7.467766952966368
    vertex 24.20173944144161 21.875203961270493 0.0
  endloop
endfacet
facet normal -1.0 0.0 0.0
  outer loop
    vertex 24.20173944144161 31.407437008304132 7.467766952966368
    vertex 24.20173944144161 21.875203961270493 24.7
    vertex 24.20173944144161 31.925203961270498 7.865063509461096
  endloop
endfacet
facet normal -1.0 0.0 0.0
  outer loop
    vertex 24.20173944144161 31.925203961270498 7.865063509461096
    vertex 24.20173944144161 21.875203961270493 24.7
    vertex 24.20173944144161 32.5281563485142 8.114814565722671
  endloop
endfacet
facet normal -1.0 0.0 0.0
  outer loop
    vertex 24.20173944144161 32.5281563485142 8.114814565722671
    vertex 24.20173944144161 21.875203961270493 24.7
    vertex 24.20173944144161 96.07520396127049 24.7
  endloop
endfacet
facet normal -1.0 0.0 0.0
  outer loop
    vertex 24.20173944144161 21.875203961270493 0.0
    vertex 24.20173944144161 31.407437008304132 7.467766952966368
    vertex 24.20173944144161 31.010140451809406 6.949999999999998
  endloop
endfacet
facet normal -1.0 0.0 0.0
  outer loop
    vertex 24.20173944144161 21.875203961270493 0.0
    vertex 24.20173944144161 31.010140451809406 6.949999999999998
    vertex 24.20173944144161 30.76038939554783 6.347047612756301
  endloop
endfacet
facet normal -1.0 0.0 0.0
  outer loop
    vertex 24.20173944144161 21.875203961270493 0.0
    vertex 24.20173944144161 30.76038939554783 6.347047612756301
    vertex 24.20173944144161 30.675203961270498 5.699999999999999
  endloop
endfacet
facet normal -1.0 0.0 0.0
  outer loop
    vertex 24.20173944144161 32.5281563485142 8.114814565722671
    vertex 24.20173944144161 96.07520396127049 24.7
    vertex 24.20173944144161 33.1752039612705 8.200000000000001
  endloop
endfacet
facet normal -1.0 0.0 0.0
  outer loop
    vertex 24.20173944144161 33.1752039612705 8.200000000000001
    vertex 24.20173944144161 96.07520396127049 24.7
    vertex 24.20173944144161 33.8222515740268 8.114814565722671
  endloop
endfacet
facet normal -1.0 0.0 0.0
  outer loop
    vertex 24.20173944144161 33.8222515740268 8.114814565722671
    vertex 24.20173944144161 96.07520396127049 24.7
    vertex 24.20173944144161 34.4252039612705 7.8650635094610974
  endloop
endfacet
facet normal -1.0 0.0 0.0
  outer loop
    vertex 24.20173944144161 34.4252039612705 7.8650635094610974
    vertex 24.20173944144161 96.07520396127049 24.7
    vertex 24.20173944144161 34.94297091423687 7.46776695296637
  endloop
endfacet
facet normal -1.0 0.0 0.0
  outer loop
    vertex 24.20173944144161 34.94297091423687 7.46776695296637
    vertex 24.20173944144161 96.07520396127049 24.7
    vertex 24.20173944144161 35.3402674707316 6.950000000000001
  endloop
endfacet
facet normal -1.0 0.0 0.0
  outer loop
    vertex 24.20173944144161 35.3402674707316 6.950000000000001
    vertex 24.20173944144161 96.07520396127049 24.7
    vertex 24.20173944144161 35.59001852699317 6.3470476127563025
  endloop
endfacet
facet normal -1.0 0.0 0.0
  outer loop
    vertex 24.20173944144161 35.59001852699317 6.3470476127563025
    vertex 24.20173944144161 96.07520396127049 24.7
    vertex 24.20173944144161 35.6752039612705 5.7
  endloop
endfacet
facet normal -1.0 0.0 0.0
  outer loop
    vertex 24.20173944144161 21.875203961270493 0.0
    vertex 24.20173944144161 33.1752039612705 3.1999999999999997
    vertex 24.20173944144161 96.07520396127049 0.0
  endloop
endfacet
facet normal -1.0 0.0 0.0
  outer loop
    vertex 24.20173944144161 33.1752039612705 3.1999999999999997
    vertex 24.20173944144161 21.875203961270493 0.0
    vertex 24.20173944144161 32.5281563485142 3.285185434277329
  endloop
endfacet
facet normal -1.0 0.0 0.0
  outer loop
    vertex 24.20173944144161 32.5281563485142 3.285185434277329
    vertex 24.20173944144161 21.875203961270493 0.0
    vertex 24.20173944144161 31.9252039612705 3.534936490538903
  endloop
endfacet
facet normal -1.0 0.0 0.0
  outer loop
    vertex 24.20173944144161 31.9252039612705 3.534936490538903
    vertex 24.20173944144161 21.875203961270493 0.0
    vertex 24.20173944144161 31.407437008304132 3.9322330470336304
  endloop
endfacet
facet normal -1.0 0.0 0.0
  outer loop
    vertex 24.20173944144161 31.407437008304132 3.9322330470336304
    vertex 24.20173944144161 21.875203961270493 0.0
    vertex 24.20173944144161 31.010140451809406 4.449999999999999
  endloop
endfacet
facet normal -1.0 0.0 0.0
  outer loop
    vertex 24.20173944144161 31.010140451809406 4.449999999999999
    vertex 24.20173944144161 21.875203961270493 0.0
    vertex 24.20173944144161 30.76038939554783 5.052952387243696
  endloop
endfacet
facet normal -1.0 0.0 0.0
  outer loop
    vertex 24.20173944144161 30.76038939554783 5.052952387243696
    vertex 24.20173944144161 21.875203961270493 0.0
    vertex 24.20173944144161 30.675203961270498 5.699999999999999
  endloop
endfacet
facet normal -1.0 0.0 0.0
  outer loop
    vertex 24.20173944144161 96.07520396127049 0.0
    vertex 24.20173944144161 33.1752039612705 3.1999999999999997
    vertex 24.20173944144161 33.8222515740268 3.285185434277329
  endloop
endfacet
facet normal -1.0 0.0 0.0
  outer loop
    vertex 24.20173944144161 96.07520396127049 0.0
    vertex 24.20173944144161 33.8222515740268 3.285185434277329
    vertex 24.20173944144161 34.425203961270505 3.534936490538904
  endloop
endfacet
facet normal -1.0 0.0 0.0
  outer loop
    vertex 24.20173944144161 96.07520396127049 0.0
    vertex 24.20173944144161 34.425203961270505 3.534936490538904
    vertex 24.20173944144161 34.94297091423687 3.9322330470336313
  endloop
endfacet
facet normal -1.0 0.0 0.0
  outer loop
    vertex 24.20173944144161 96.07520396127049 0.0
    vertex 24.20173944144161 34.94297091423687 3.9322330470336313
    vertex 24.20173944144161 35.3402674707316 4.45
  endloop
endfacet
facet normal -1.0 0.0 0.0
  outer loop
    vertex 24.20173944144161 96.07520396127049 0.0
    vertex 24.20173944144161 35.3402674707316 4.45
    vertex 24.20173944144161 35.59001852699317 5.052952387243698
  endloop
endfacet
facet normal -1.0 0.0 0.0
  outer loop
    vertex 24.20173944144161 96.07520396127049 0.0
    vertex 24.20173944144161 35.59001852699317 5.052952387243698
    vertex 24.20173944144161 35.6752039612705 5.7
  endloop
endfacet
facet normal -1.0 0.0 0.0
  outer loop
    vertex 24.20173944144161 96.07520396127049 0.0
    vertex 24.20173944144161 35.6752039612705 5.7
    vertex 24.20173944144161 96.07520396127049 24.7
  endloop
endfacet
facet normal -0.0 1.0 0.0
  outer loop
    vertex 24.20173944144161 96.07520396127049 24.7
    vertex 61.80173944144161 96.07520396127049 0.0
    vertex 24.20173944144161 96.07520396127049 0.0
  endloop
endfacet
facet normal -0.0 1.0 0.0
  outer loop
    vertex 61.80173944144161 96.07520396127049 0.0
    vertex 24.20173944144161 96.07520396127049 24.7
    vertex 61.80173944144161 96.07520396127049 24.7
  endloop
endfacet
facet normal -0.0 -0.0 1.0
  outer loop
    vertex 61.001739441441615 49.275203961270485 0.7
    vertex 42.80173944144161 95.27520396127049 0.7
    vertex 42.80173944144161 49.275203961270485 0.7
  endloop
endfacet
facet normal -0.0 -0.0 1.0
  outer loop
    vertex 42.80173944144161 95.27520396127049 0.7
    vertex 61.001739441441615 49.275203961270485 0.7
    vertex 61.001739441441615 95.27520396127049 0.7
  endloop
endfacet
facet normal 0.0 0.0 -1.0
  outer loop
    vertex 61.80173944144161 96.07520396127049 0.0
    vertex 24.20173944144161 21.875203961270493 0.0
    vertex 24.20173944144161 96.07520396127049 0.0
  endloop
endfacet
facet normal 0.0 0.0 -1.0
  outer loop
    vertex 24.20173944144161 21.875203961270493 0.0
    vertex 61.80173944144161 96.07520396127049 0.0
    vertex 61.80173944144161 21.875203961270493 0.0
  endloop
endfacet
facet normal 1.0 0.0 0.0
  outer loop
    vertex 61.801739441441605 38.17520396127048 5.700000000000001
    vertex 61.80173944144165 28.675203961270498 8.7
    vertex 61.801739441441605 28.17520396127048 5.700000000000001
  endloop
endfacet
facet normal 1.0 0.0 0.0
  outer loop
    vertex 61.80173944144165 28.675203961270498 8.7
    vertex 61.801739441441605 38.17520396127048 5.700000000000001
    vertex 61.80173944144165 37.6752039612705 8.700000000000001
  endloop
endfacet
facet normal 1.0 0.0 0.0
  outer loop
    vertex 61.80173944144165 37.6752039612705 8.700000000000001
    vertex 61.801739441441605 38.17520396127048 5.700000000000001
    vertex 61.80173944144165 37.6752039612705 12.7
  endloop
endfacet
facet normal 1.0 0.0 0.0
  outer loop
    vertex 61.80173944144161 21.875203961270493 0.0
    vertex 61.801739441441626 28.17520396127048 1.700000000000001
    vertex 61.80173944144161 21.875203961270493 24.7
  endloop
endfacet
facet normal 1.0 0.0 0.0
  outer loop
    vertex 61.801739441441626 28.17520396127048 1.700000000000001
    vertex 61.80173944144161 21.875203961270493 0.0
    vertex 61.80173944144161 96.07520396127049 0.0
  endloop
endfacet
facet normal 1.0 0.0 0.0
  outer loop
    vertex 61.801739441441626 28.17520396127048 1.700000000000001
    vertex 61.80173944144161 96.07520396127049 0.0
    vertex 61.801739441441605 38.17520396127048 1.700000000000001
  endloop
endfacet
facet normal 1.0 0.0 0.0
  outer loop
    vertex 61.801739441441605 38.17520396127048 1.700000000000001
    vertex 61.80173944144161 96.07520396127049 0.0
    vertex 61.801739441441605 38.17520396127048 5.700000000000001
  endloop
endfacet
facet normal 1.0 0.0 0.0
  outer loop
    vertex 61.80173944144161 21.875203961270493 24.7
    vertex 61.80173944144165 28.675203961270498 12.7
    vertex 61.80173944144161 96.07520396127049 24.7
  endloop
endfacet
facet normal 1.0 0.0 0.0
  outer loop
    vertex 61.80173944144165 28.675203961270498 12.7
    vertex 61.80173944144161 21.875203961270493 24.7
    vertex 61.801739441441605 28.17520396127048 5.700000000000001
  endloop
endfacet
facet normal 1.0 0.0 0.0
  outer loop
    vertex 61.801739441441605 28.17520396127048 5.700000000000001
    vertex 61.80173944144161 21.875203961270493 24.7
    vertex 61.801739441441626 28.17520396127048 1.700000000000001
  endloop
endfacet
facet normal 1.0 0.0 0.0
  outer loop
    vertex 61.80173944144165 28.675203961270498 12.7
    vertex 61.801739441441605 28.17520396127048 5.700000000000001
    vertex 61.80173944144165 28.675203961270498 8.7
  endloop
endfacet
facet normal 1.0 0.0 0.0
  outer loop
    vertex 61.80173944144161 96.07520396127049 24.7
    vertex 61.80173944144165 28.675203961270498 12.7
    vertex 61.80173944144165 37.6752039612705 12.7
  endloop
endfacet
facet normal 1.0 0.0 0.0
  outer loop
    vertex 61.80173944144161 96.07520396127049 24.7
    vertex 61.80173944144165 37.6752039612705 12.7
    vertex 61.801739441441605 38.17520396127048 5.700000000000001
  endloop
endfacet
facet normal 1.0 0.0 0.0
  outer loop
    vertex 61.80173944144161 96.07520396127049 24.7
    vertex 61.801739441441605 38.17520396127048 5.700000000000001
    vertex 61.80173944144161 96.07520396127049 0.0
  endloop
endfacet
facet normal 1.0 7.25734678653424e-17 2.791090523237094e-17
  outer loop
    vertex 42.80173944144161 95.27520396127049 0.7
    vertex 42.80173944144162 49.275203961270485 4.7
    vertex 42.80173944144161 49.275203961270485 0.7
  endloop
endfacet
facet normal 1.0 7.25734678653424e-17 2.791090523237094e-17
  outer loop
    vertex 42.80173944144162 49.275203961270485 4.7
    vertex 42.80173944144161 95.27520396127049 0.7
    vertex 42.80173944144161 53.275203961270485 4.7
  endloop
endfacet
facet normal 1.0 7.25734678653424e-17 2.791090523237094e-17
  outer loop
    vertex 42.80173944144161 53.275203961270485 4.7
    vertex 42.80173944144161 95.27520396127049 0.7
    vertex 42.80173944144161 69.4752039612705 4.7
  endloop
endfacet
facet normal 1.0 7.25734678653424e-17 2.791090523237094e-17
  outer loop
    vertex 42.80173944144161 69.4752039612705 4.7
    vertex 42.80173944144161 95.27520396127049 0.7
    vertex 42.80173944144161 78.27520396127049 4.7
  endloop
endfacet
facet normal 1.0 7.25734678653424e-17 2.791090523237094e-17
  outer loop
    vertex 42.80173944144161 69.4752039612705 4.7
    vertex 42.80173944144161 78.27520396127049 4.7
    vertex 42.80173944144161 69.4752039612705 12.7
  endloop
endfacet
facet normal 1.0 7.25734678653424e-17 2.791090523237094e-17
  outer loop
    vertex 42.80173944144161 78.27520396127049 4.7
    vertex 42.80173944144161 95.27520396127049 0.7
    vertex 42.80173944144161 91.27520396127048 4.7
  endloop
endfacet
facet normal 1.0 7.25734678653424e-17 2.791090523237094e-17
  outer loop
    vertex 42.80173944144161 91.27520396127048 4.7
    vertex 42.80173944144161 95.27520396127049 0.7
    vertex 42.80173944144161 91.27520396127048 12.7
  endloop
endfacet
facet normal 1.0 7.25734678653424e-17 2.791090523237094e-17
  outer loop
    vertex 42.80173944144161 91.27520396127048 12.7
    vertex 42.80173944144161 95.27520396127049 0.7
    vertex 42.80173944144161 95.27520396127049 12.7
  endloop
endfacet
facet normal 1.0 7.25734678653424e-17 2.791090523237094e-17
  outer loop
    vertex 42.80173944144161 78.27520396127049 12.7
    vertex 42.80173944144161 69.4752039612705 12.7
    vertex 42.80173944144161 78.27520396127049 4.7
  endloop
endfacet
facet normal 1.0 7.25734678653424e-17 2.791090523237094e-17
  outer loop
    vertex 42.80173944144162 49.275203961270485 4.7
    vertex 42.80173944144162 43.6752039612705 12.7
    vertex 42.80173944144162 43.6752039612705 4.7
  endloop
endfacet
facet normal 1.0 7.25734678653424e-17 2.791090523237094e-17
  outer loop
    vertex 42.80173944144162 43.6752039612705 12.7
    vertex 42.80173944144162 49.275203961270485 4.7
    vertex 42.80173944144161 53.275203961270485 12.7
  endloop
endfacet
facet normal 1.0 7.25734678653424e-17 2.791090523237094e-17
  outer loop
    vertex 42.80173944144161 53.275203961270485 12.7
    vertex 42.80173944144162 49.275203961270485 4.7
    vertex 42.80173944144161 53.275203961270485 4.7
  endloop
endfacet
facet normal 0.0 1.0 0.0
  outer loop
    vertex 25.00173944144161 74.27520396127049 0.7
    vertex 29.00173944144161 74.27520396127049 4.7
    vertex 42.001739441441615 74.27520396127049 0.7
  endloop
endfacet
facet normal 0.0 1.0 0.0
  outer loop
    vertex 29.00173944144161 74.27520396127049 4.7
    vertex 25.00173944144161 74.27520396127049 0.7
    vertex 25.00173944144161 74.27520396127049 12.7
  endloop
endfacet
facet normal 0.0 1.0 0.0
  outer loop
    vertex 29.00173944144161 74.27520396127049 4.7
    vertex 25.00173944144161 74.27520396127049 12.7
    vertex 29.00173944144161 74.27520396127049 12.7
  endloop
endfacet
facet normal 0.0 1.0 0.0
  outer loop
    vertex 42.001739441441615 74.27520396127049 0.7
    vertex 38.001739441441615 74.27520396127049 4.7
    vertex 42.001739441441615 74.27520396127049 12.7
  endloop
endfacet
facet normal 0.0 1.0 0.0
  outer loop
    vertex 38.001739441441615 74.27520396127049 4.7
    vertex 42.001739441441615 74.27520396127049 0.7
    vertex 29.00173944144161 74.27520396127049 4.7
  endloop
endfacet
facet normal 0.0 1.0 0.0
  outer loop
    vertex 42.001739441441615 74.27520396127049 12.7
    vertex 38.001739441441615 74.27520396127049 4.7
    vertex 38.001739441441615 74.27520396127049 12.7
  endloop
endfacet
facet normal 0.0 -1.0 0.0
  outer loop
    vertex 42.001739441441615 73.4752039612705 0.7
    vertex 38.001739441441615 73.4752039612705 4.7
    vertex 25.00173944144161 73.4752039612705 0.7
  endloop
endfacet
facet normal 0.0 -1.0 0.0
  outer loop
    vertex 38.001739441441615 73.4752039612705 4.7
    vertex 42.001739441441615 73.4752039612705 0.7
    vertex 42.001739441441615 73.4752039612705 12.7
  endloop
endfacet
facet normal 0.0 -1.0 0.0
  outer loop
    vertex 38.001739441441615 73.4752039612705 4.7
    vertex 42.001739441441615 73.4752039612705 12.7
    vertex 38.001739441441615 73.4752039612705 12.7
  endloop
endfacet
facet normal 0.0 -1.0 0.0
  outer loop
    vertex 25.00173944144161 73.4752039612705 0.7
    vertex 29.00173944144161 73.4752039612705 4.7
    vertex 25.00173944144161 73.4752039612705 12.7
  endloop
endfacet
facet normal 0.0 -1.0 0.0
  outer loop
    vertex 29.00173944144161 73.4752039612705 4.7
    vertex 25.00173944144161 73.4752039612705 0.7
    vertex 38.001739441441615 73.4752039612705 4.7
  endloop
endfacet
facet normal 0.0 -1.0 0.0
  outer loop
    vertex 25.00173944144161 73.4752039612705 12.7
    vertex 29.00173944144161 73.4752039612705 4.7
    vertex 29.00173944144161 73.4752039612705 12.7
  endloop
endfacet
facet normal -1.0 -0.0 -0.0
  outer loop
    vertex 42.001739441441615 73.4752039612705 12.7
    vertex 42.001739441441615 69.4752039612705 4.7
    vertex 42.001739441441615 69.4752039612705 12.7
  endloop
endfacet
facet normal -1.0 -0.0 -0.0
  outer loop
    vertex 42.001739441441615 53.275203961270485 12.7
    vertex 42.001739441441615 44.475203961270495 0.7
    vertex 42.001739441441615 44.475203961270495 12.7
  endloop
endfacet
facet normal -1.0 -0.0 -0.0
  outer loop
    vertex 42.001739441441615 44.475203961270495 0.7
    vertex 42.001739441441615 53.275203961270485 12.7
    vertex 42.001739441441615 53.275203961270485 4.7
  endloop
endfacet
facet normal -1.0 -0.0 -0.0
  outer loop
    vertex 42.001739441441615 44.475203961270495 0.7
    vertex 42.001739441441615 53.275203961270485 4.7
    vertex 42.001739441441615 73.4752039612705 0.7
  endloop
endfacet
facet normal -1.0 -0.0 -0.0
  outer loop
    vertex 42.001739441441615 73.4752039612705 0.7
    vertex 42.001739441441615 53.275203961270485 4.7
    vertex 42.001739441441615 69.4752039612705 4.7
  endloop
endfacet
facet normal -1.0 -0.0 -0.0
  outer loop
    vertex 42.001739441441615 73.4752039612705 0.7
    vertex 42.001739441441615 69.4752039612705 4.7
    vertex 42.001739441441615 73.4752039612705 12.7
  endloop
endfacet
facet normal 0.0 1.0 0.0
  outer loop
    vertex 25.001739441441615 44.475203961270495 0.7
    vertex 29.001739441441618 44.475203961270495 4.7
    vertex 42.001739441441615 44.475203961270495 0.7
  endloop
endfacet
facet normal 0.0 1.0 0.0
  outer loop
    vertex 29.001739441441618 44.475203961270495 4.7
    vertex 25.001739441441615 44.475203961270495 0.7
    vertex 25.001739441441615 44.475203961270495 12.7
  endloop
endfacet
facet normal 0.0 1.0 0.0
  outer loop
    vertex 29.001739441441618 44.475203961270495 4.7
    vertex 25.001739441441615 44.475203961270495 12.7
    vertex 29.001739441441618 44.475203961270495 12.7
  endloop
endfacet
facet normal 0.0 1.0 0.0
  outer loop
    vertex 42.001739441441615 44.475203961270495 0.7
    vertex 32.20173944144162 44.475203961270495 4.7
    vertex 42.001739441441615 44.475203961270495 12.7
  endloop
endfacet
facet normal 0.0 1.0 0.0
  outer loop
    vertex 32.20173944144162 44.475203961270495 4.7
    vertex 42.001739441441615 44.475203961270495 0.7
    vertex 29.001739441441618 44.475203961270495 4.7
  endloop
endfacet
facet normal 0.0 1.0 0.0
  outer loop
    vertex 42.001739441441615 44.475203961270495 12.7
    vertex 32.20173944144162 44.475203961270495 4.7
    vertex 32.20173944144162 44.475203961270495 12.7
  endloop
endfacet
facet normal -1.0 -0.0 -0.0
  outer loop
    vertex 42.001739441441615 95.27520396127049 12.7
    vertex 42.001739441441615 91.27520396127048 4.7
    vertex 42.001739441441615 91.27520396127048 12.7
  endloop
endfacet
facet normal -1.0 -0.0 -0.0
  outer loop
    vertex 42.001739441441615 78.27520396127049 12.7
    vertex 42.001739441441615 74.27520396127049 0.7
    vertex 42.001739441441615 74.27520396127049 12.7
  endloop
endfacet
facet normal -1.0 -0.0 -0.0
  outer loop
    vertex 42.001739441441615 74.27520396127049 0.7
    vertex 42.001739441441615 78.27520396127049 12.7
    vertex 42.001739441441615 78.27520396127049 4.7
  endloop
endfacet
facet normal -1.0 -0.0 -0.0
  outer loop
    vertex 42.001739441441615 74.27520396127049 0.7
    vertex 42.001739441441615 78.27520396127049 4.7
    vertex 42.001739441441615 95.27520396127049 0.7
  endloop
endfacet
facet normal -1.0 -0.0 -0.0
  outer loop
    vertex 42.001739441441615 95.27520396127049 0.7
    vertex 42.001739441441615 78.27520396127049 4.7
    vertex 42.001739441441615 91.27520396127048 4.7
  endloop
endfacet
facet normal -1.0 -0.0 -0.0
  outer loop
    vertex 42.001739441441615 95.27520396127049 0.7
    vertex 42.001739441441615 91.27520396127048 4.7
    vertex 42.001739441441615 95.27520396127049 12.7
  endloop
endfacet
facet normal 0.0 -1.0 0.0
  outer loop
    vertex 34.20173944144162 43.6752039612705 0.7
    vertex 32.20173944144162 43.6752039612705 4.7
    vertex 25.001739441441615 43.6752039612705 0.7
  endloop
endfacet
facet normal 0.0 -1.0 0.0
  outer loop
    vertex 32.20173944144162 43.6752039612705 4.7
    vertex 34.20173944144162 43.6752039612705 0.7
    vertex 34.20173944144162 43.6752039612705 12.7
  endloop
endfacet
facet normal 0.0 -1.0 0.0
  outer loop
    vertex 32.20173944144162 43.6752039612705 4.7
    vertex 34.20173944144162 43.6752039612705 12.7
    vertex 32.20173944144162 43.6752039612705 12.7
  endloop
endfacet
facet normal 0.0 -1.0 0.0
  outer loop
    vertex 25.001739441441615 43.6752039612705 0.7
    vertex 29.001739441441618 43.6752039612705 4.7
    vertex 25.001739441441615 43.6752039612705 12.7
  endloop
endfacet
facet normal 0.0 -1.0 0.0
  outer loop
    vertex 29.001739441441618 43.6752039612705 4.7
    vertex 25.001739441441615 43.6752039612705 0.7
    vertex 32.20173944144162 43.6752039612705 4.7
  endloop
endfacet
facet normal 0.0 -1.0 0.0
  outer loop
    vertex 25.001739441441615 43.6752039612705 12.7
    vertex 29.001739441441618 43.6752039612705 4.7
    vertex 29.001739441441618 43.6752039612705 12.7
  endloop
endfacet
facet normal -1.0 -0.0 -0.0
  outer loop
    vertex 34.20173944144162 43.6752039612705 12.7
    vertex 34.20173944144162 39.6752039612705 4.7
    vertex 34.20173944144162 39.6752039612705 12.7
  endloop
endfacet
facet normal -1.0 -0.0 -0.0
  outer loop
    vertex 34.20173944144162 26.675203961270494 12.7
    vertex 34.20173944144162 22.675203961270498 0.7
    vertex 34.20173944144162 22.675203961270498 12.7
  endloop
endfacet
facet normal -1.0 -0.0 -0.0
  outer loop
    vertex 34.20173944144162 22.675203961270498 0.7
    vertex 34.20173944144162 26.675203961270494 12.7
    vertex 34.20173944144162 26.675203961270494 4.7
  endloop
endfacet
facet normal -1.0 -0.0 -0.0
  outer loop
    vertex 34.20173944144162 22.675203961270498 0.7
    vertex 34.20173944144162 26.675203961270494 4.7
    vertex 34.20173944144162 43.6752039612705 0.7
  endloop
endfacet
facet normal -1.0 -0.0 -0.0
  outer loop
    vertex 34.20173944144162 43.6752039612705 0.7
    vertex 34.20173944144162 26.675203961270494 4.7
    vertex 34.20173944144162 39.6752039612705 4.7
  endloop
endfacet
facet normal -1.0 -0.0 -0.0
  outer loop
    vertex 34.20173944144162 43.6752039612705 0.7
    vertex 34.20173944144162 39.6752039612705 4.7
    vertex 34.20173944144162 43.6752039612705 12.7
  endloop
endfacet
facet normal -0.0 -0.0 1.0
  outer loop
    vertex 34.20173944144162 22.675203961270498 0.7
    vertex 25.001739441441615 43.6752039612705 0.7
    vertex 25.00173944144161 22.675203961270498 0.7
  endloop
endfacet
facet normal -0.0 -0.0 1.0
  outer loop
    vertex 25.001739441441615 43.6752039612705 0.7
    vertex 34.20173944144162 22.675203961270498 0.7
    vertex 34.20173944144162 43.6752039612705 0.7
  endloop
endfacet
facet normal 1.0 1.3339721926542611e-17 3.126833945967893e-17
  outer loop
    vertex 25.00173944144161 22.675203961270498 0.7
    vertex 25.00173944144161 30.76038939554783 5.052952387243696
    vertex 25.00173944144161 22.675203961270498 24.7
  endloop
endfacet
facet normal 1.0 1.3339721926542611e-17 3.126833945967893e-17
  outer loop
    vertex 25.00173944144161 30.76038939554783 5.052952387243696
    vertex 25.00173944144161 22.675203961270498 0.7
    vertex 25.00173944144161 31.010140451809406 4.449999999999999
  endloop
endfacet
facet normal 1.0 1.3339721926542611e-17 3.126833945967893e-17
  outer loop
    vertex 25.00173944144161 31.010140451809406 4.449999999999999
    vertex 25.00173944144161 22.675203961270498 0.7
    vertex 25.00173944144161 31.407437008304132 3.9322330470336304
  endloop
endfacet
facet normal 1.0 1.3339721926542611e-17 3.126833945967893e-17
  outer loop
    vertex 25.00173944144161 31.407437008304132 3.9322330470336304
    vertex 25.00173944144161 22.675203961270498 0.7
    vertex 25.00173944144161 31.9252039612705 3.534936490538903
  endloop
endfacet
facet normal 1.0 1.3339721926542611e-17 3.126833945967893e-17
  outer loop
    vertex 25.00173944144161 31.9252039612705 3.534936490538903
    vertex 25.00173944144161 22.675203961270498 0.7
    vertex 25.00173944144161 32.5281563485142 3.285185434277329
  endloop
endfacet
facet normal 1.0 1.3339721926542611e-17 3.126833945967893e-17
  outer loop
    vertex 25.00173944144161 32.5281563485142 3.285185434277329
    vertex 25.00173944144161 22.675203961270498 0.7
    vertex 25.001739441441615 43.6752039612705 0.7
  endloop
endfacet
facet normal 1.0 1.3339721926542611e-17 3.126833945967893e-17
  outer loop
    vertex 25.00173944144161 22.675203961270498 24.7
    vertex 25.00173944144161 30.76038939554783 5.052952387243696
    vertex 25.00173944144161 30.675203961270498 5.699999999999999
  endloop
endfacet
facet normal 1.0 1.3339721926542611e-17 3.126833945967893e-17
  outer loop
    vertex 25.00173944144161 32.5281563485142 3.285185434277329
    vertex 25.001739441441615 43.6752039612705 0.7
    vertex 25.00173944144161 33.1752039612705 3.1999999999999997
  endloop
endfacet
facet normal 1.0 1.3339721926542611e-17 3.126833945967893e-17
  outer loop
    vertex 25.00173944144161 33.1752039612705 3.1999999999999997
    vertex 25.001739441441615 43.6752039612705 0.7
    vertex 25.00173944144161 33.8222515740268 3.285185434277329
  endloop
endfacet
facet normal 1.0 1.3339721926542611e-17 3.126833945967893e-17
  outer loop
    vertex 25.00173944144161 33.8222515740268 3.285185434277329
    vertex 25.001739441441615 43.6752039612705 0.7
    vertex 25.00173944144161 34.425203961270505 3.534936490538904
  endloop
endfacet
facet normal 1.0 1.3339721926542611e-17 3.126833945967893e-17
  outer loop
    vertex 25.00173944144161 34.425203961270505 3.534936490538904
    vertex 25.001739441441615 43.6752039612705 0.7
    vertex 25.00173944144161 34.94297091423687 3.9322330470336313
  endloop
endfacet
facet normal 1.0 1.3339721926542611e-17 3.126833945967893e-17
  outer loop
    vertex 25.00173944144161 34.94297091423687 3.9322330470336313
    vertex 25.001739441441615 43.6752039612705 0.7
    vertex 25.00173944144161 35.3402674707316 4.45
  endloop
endfacet
facet normal 1.0 1.3339721926542611e-17 3.126833945967893e-17
  outer loop
    vertex 25.00173944144161 35.3402674707316 4.45
    vertex 25.001739441441615 43.6752039612705 0.7
    vertex 25.00173944144161 35.59001852699317 5.052952387243698
  endloop
endfacet
facet normal 1.0 1.3339721926542611e-17 3.126833945967893e-17
  outer loop
    vertex 25.00173944144161 35.59001852699317 5.052952387243698
    vertex 25.001739441441615 43.6752039612705 0.7
    vertex 25.00173944144161 35.6752039612705 5.7
  endloop
endfacet
facet normal 1.0 1.3339721926542611e-17 3.126833945967893e-17
  outer loop
    vertex 25.00173944144161 73.4752039612705 0.7
    vertex 25.001739441441615 44.475203961270495 12.7
    vertex 25.001739441441615 44.475203961270495 0.7
  endloop
endfacet
facet normal 1.0 1.3339721926542611e-17 3.126833945967893e-17
  outer loop
    vertex 25.00173944144161 95.27520396127049 0.7
    vertex 25.00173944144161 74.27520396127049 12.7
    vertex 25.00173944144161 74.27520396127049 0.7
  endloop
endfacet
facet normal 1.0 1.3339721926542611e-17 3.126833945967893e-17
  outer loop
    vertex 25.00173944144161 22.675203961270498 24.7
    vertex 25.001739441441615 43.6752039612705 12.7
    vertex 25.00173944144161 95.27520396127049 24.7
  endloop
endfacet
facet normal 1.0 1.3339721926542611e-17 3.126833945967893e-17
  outer loop
    vertex 25.001739441441615 43.6752039612705 12.7
    vertex 25.00173944144161 22.675203961270498 24.7
    vertex 25.00173944144161 32.5281563485142 8.114814565722671
  endloop
endfacet
facet normal 1.0 1.3339721926542611e-17 3.126833945967893e-17
  outer loop
    vertex 25.00173944144161 32.5281563485142 8.114814565722671
    vertex 25.00173944144161 22.675203961270498 24.7
    vertex 25.00173944144161 31.925203961270498 7.865063509461096
  endloop
endfacet
facet normal 1.0 1.3339721926542611e-17 3.126833945967893e-17
  outer loop
    vertex 25.00173944144161 31.925203961270498 7.865063509461096
    vertex 25.00173944144161 22.675203961270498 24.7
    vertex 25.00173944144161 31.407437008304132 7.467766952966368
  endloop
endfacet
facet normal 1.0 1.3339721926542611e-17 3.126833945967893e-17
  outer loop
    vertex 25.00173944144161 31.407437008304132 7.467766952966368
    vertex 25.00173944144161 22.675203961270498 24.7
    vertex 25.00173944144161 31.010140451809406 6.949999999999998
  endloop
endfacet
facet normal 1.0 1.3339721926542611e-17 3.126833945967893e-17
  outer loop
    vertex 25.00173944144161 31.010140451809406 6.949999999999998
    vertex 25.00173944144161 22.675203961270498 24.7
    vertex 25.00173944144161 30.76038939554783 6.347047612756301
  endloop
endfacet
facet normal 1.0 1.3339721926542611e-17 3.126833945967893e-17
  outer loop
    vertex 25.00173944144161 30.76038939554783 6.347047612756301
    vertex 25.00173944144161 22.675203961270498 24.7
    vertex 25.00173944144161 30.675203961270498 5.699999999999999
  endloop
endfacet
facet normal 1.0 1.3339721926542611e-17 3.126833945967893e-17
  outer loop
    vertex 25.001739441441615 43.6752039612705 12.7
    vertex 25.00173944144161 32.5281563485142 8.114814565722671
    vertex 25.00173944144161 33.1752039612705 8.200000000000001
  endloop
endfacet
facet normal 1.0 1.3339721926542611e-17 3.126833945967893e-17
  outer loop
    vertex 25.001739441441615 43.6752039612705 12.7
    vertex 25.00173944144161 33.1752039612705 8.200000000000001
    vertex 25.00173944144161 33.8222515740268 8.114814565722671
  endloop
endfacet
facet normal 1.0 1.3339721926542611e-17 3.126833945967893e-17
  outer loop
    vertex 25.001739441441615 43.6752039612705 12.7
    vertex 25.00173944144161 33.8222515740268 8.114814565722671
    vertex 25.00173944144161 34.4252039612705 7.8650635094610974
  endloop
endfacet
facet normal 1.0 1.3339721926542611e-17 3.126833945967893e-17
  outer loop
    vertex 25.001739441441615 43.6752039612705 12.7
    vertex 25.00173944144161 34.4252039612705 7.8650635094610974
    vertex 25.00173944144161 34.94297091423687 7.46776695296637
  endloop
endfacet
facet normal 1.0 1.3339721926542611e-17 3.126833945967893e-17
  outer loop
    vertex 25.001739441441615 43.6752039612705 12.7
    vertex 25.00173944144161 34.94297091423687 7.46776695296637
    vertex 25.00173944144161 35.3402674707316 6.950000000000001
  endloop
endfacet
facet normal 1.0 1.3339721926542611e-17 3.126833945967893e-17
  outer loop
    vertex 25.001739441441615 43.6752039612705 12.7
    vertex 25.00173944144161 35.3402674707316 6.950000000000001
    vertex 25.00173944144161 35.59001852699317 6.3470476127563025
  endloop
endfacet
facet normal 1.0 1.3339721926542611e-17 3.126833945967893e-17
  outer loop
    vertex 25.001739441441615 43.6752039612705 12.7
    vertex 25.00173944144161 35.59001852699317 6.3470476127563025
    vertex 25.00173944144161 35.6752039612705 5.7
  endloop
endfacet
facet normal 1.0 1.3339721926542611e-17 3.126833945967893e-17
  outer loop
    vertex 25.001739441441615 43.6752039612705 12.7
    vertex 25.00173944144161 35.6752039612705 5.7
    vertex 25.001739441441615 43.6752039612705 0.7
  endloop
endfacet
facet normal 1.0 1.3339721926542611e-17 3.126833945967893e-17
  outer loop
    vertex 25.00173944144161 95.27520396127049 24.7
    vertex 25.001739441441615 43.6752039612705 12.7
    vertex 25.001739441441615 44.475203961270495 12.7
  endloop
endfacet
facet normal 1.0 1.3339721926542611e-17 3.126833945967893e-17
  outer loop
    vertex 25.00173944144161 95.27520396127049 24.7
    vertex 25.001739441441615 44.475203961270495 12.7
    vertex 25.00173944144161 73.4752039612705 12.7
  endloop
endfacet
facet normal 1.0 1.3339721926542611e-17 3.126833945967893e-17
  outer loop
    vertex 25.00173944144161 73.4752039612705 12.7
    vertex 25.001739441441615 44.475203961270495 12.7
    vertex 25.00173944144161 73.4752039612705 0.7
  endloop
endfacet
facet normal 1.0 1.3339721926542611e-17 3.126833945967893e-17
  outer loop
    vertex 25.00173944144161 95.27520396127049 24.7
    vertex 25.00173944144161 73.4752039612705 12.7
    vertex 25.00173944144161 74.27520396127049 12.7
  endloop
endfacet
facet normal 1.0 1.3339721926542611e-17 3.126833945967893e-17
  outer loop
    vertex 25.00173944144161 95.27520396127049 24.7
    vertex 25.00173944144161 74.27520396127049 12.7
    vertex 25.00173944144161 95.27520396127049 0.7
  endloop
endfacet
facet normal 0.0 -1.0 0.0
  outer loop
    vertex 61.001739441441615 95.27520396127049 24.7
    vertex 42.80173944144161 95.27520396127049 0.7
    vertex 61.001739441441615 95.27520396127049 0.7
  endloop
endfacet
facet normal 0.0 -1.0 0.0
  outer loop
    vertex 42.80173944144161 95.27520396127049 0.7
    vertex 61.001739441441615 95.27520396127049 24.7
    vertex 42.80173944144161 95.27520396127049 12.7
  endloop
endfacet
facet normal 0.0 -1.0 0.0
  outer loop
    vertex 42.80173944144161 95.27520396127049 12.7
    vertex 61.001739441441615 95.27520396127049 24.7
    vertex 42.001739441441615 95.27520396127049 12.7
  endloop
endfacet
facet normal 0.0 -1.0 0.0
  outer loop
    vertex 42.001739441441615 95.27520396127049 12.7
    vertex 25.00173944144161 95.27520396127049 0.7
    vertex 42.001739441441615 95.27520396127049 0.7
  endloop
endfacet
facet normal 0.0 -1.0 0.0
  outer loop
    vertex 25.00173944144161 95.27520396127049 0.7
    vertex 42.001739441441615 95.27520396127049 12.7
    vertex 25.00173944144161 95.27520396127049 24.7
  endloop
endfacet
facet normal 0.0 -1.0 0.0
  outer loop
    vertex 25.00173944144161 95.27520396127049 24.7
    vertex 42.001739441441615 95.27520396127049 12.7
    vertex 61.001739441441615 95.27520396127049 24.7
  endloop
endfacet
facet normal -1.0 -1.1939842912105718e-16 1.0772033649601827e-16
  outer loop
    vertex 61.001739441441615 28.175203961270498 5.700000000000001
    vertex 61.001739441441615 28.675203961270498 8.7
    vertex 61.001739441441615 38.175203961270505 5.700000000000001
  endloop
endfacet
facet normal -1.0 -1.1939842912105718e-16 1.0772033649601827e-16
  outer loop
    vertex 61.001739441441615 28.675203961270498 8.7
    vertex 61.001739441441615 28.175203961270498 5.700000000000001
    vertex 61.001739441441615 28.675203961270498 12.7
  endloop
endfacet
facet normal -1.0 -1.1939842912105718e-16 1.0772033649601827e-16
  outer loop
    vertex 61.001739441441615 38.175203961270505 5.700000000000001
    vertex 61.001739441441615 28.675203961270498 8.7
    vertex 61.001739441441615 37.6752039612705 8.700000000000001
  endloop
endfacet
facet normal -1.0 -1.1939842912105718e-16 1.0772033649601827e-16
  outer loop
    vertex 61.00173944144163 22.675203961270498 24.7
    vertex 61.001739441441615 28.675203961270498 12.7
    vertex 61.00173944144163 22.675203961270498 0.7
  endloop
endfacet
facet normal -1.0 -1.1939842912105718e-16 1.0772033649601827e-16
  outer loop
    vertex 61.001739441441615 28.675203961270498 12.7
    vertex 61.00173944144163 22.675203961270498 24.7
    vertex 61.001739441441615 95.27520396127049 24.7
  endloop
endfacet
facet normal -1.0 -1.1939842912105718e-16 1.0772033649601827e-16
  outer loop
    vertex 61.00173944144163 22.675203961270498 0.7
    vertex 61.001739441441615 28.675203961270498 12.7
    vertex 61.001739441441615 28.175203961270498 5.700000000000001
  endloop
endfacet
facet normal -1.0 -1.1939842912105718e-16 1.0772033649601827e-16
  outer loop
    vertex 61.001739441441615 28.675203961270498 12.7
    vertex 61.001739441441615 95.27520396127049 24.7
    vertex 61.001739441441615 37.6752039612705 12.7
  endloop
endfacet
facet normal -1.0 -1.1939842912105718e-16 1.0772033649601827e-16
  outer loop
    vertex 61.001739441441615 37.6752039612705 12.7
    vertex 61.001739441441615 95.27520396127049 24.7
    vertex 61.001739441441615 43.6752039612705 12.7
  endloop
endfacet
facet normal -1.0 -1.1939842912105718e-16 1.0772033649601827e-16
  outer loop
    vertex 61.001739441441615 37.6752039612705 12.7
    vertex 61.001739441441615 43.6752039612705 12.7
    vertex 61.001739441441615 37.6752039612705 8.700000000000001
  endloop
endfacet
facet normal -1.0 -1.1939842912105718e-16 1.0772033649601827e-16
  outer loop
    vertex 61.001739441441615 37.6752039612705 8.700000000000001
    vertex 61.001739441441615 43.6752039612705 12.7
    vertex 61.001739441441615 38.175203961270505 5.700000000000001
  endloop
endfacet
facet normal -1.0 -1.1939842912105718e-16 1.0772033649601827e-16
  outer loop
    vertex 61.001739441441615 38.175203961270505 5.700000000000001
    vertex 61.001739441441615 43.6752039612705 12.7
    vertex 61.001739441441615 38.175203961270505 1.6999999999999997
  endloop
endfacet
facet normal -1.0 -1.1939842912105718e-16 1.0772033649601827e-16
  outer loop
    vertex 61.001739441441615 38.175203961270505 1.6999999999999997
    vertex 61.001739441441615 43.6752039612705 12.7
    vertex 61.001739441441615 38.175203961270505 0.7
  endloop
endfacet
facet normal -1.0 -1.1939842912105718e-16 1.0772033649601827e-16
  outer loop
    vertex 61.001739441441615 43.6752039612705 12.7
    vertex 61.001739441441615 95.27520396127049 24.7
    vertex 61.001739441441615 49.275203961270485 12.7
  endloop
endfacet
facet normal -1.0 -1.1939842912105718e-16 1.0772033649601827e-16
  outer loop
    vertex 61.001739441441615 49.275203961270485 12.7
    vertex 61.001739441441615 95.27520396127049 24.7
    vertex 61.001739441441615 49.275203961270485 0.7
  endloop
endfacet
facet normal -1.0 -1.1939842912105718e-16 1.0772033649601827e-16
  outer loop
    vertex 61.001739441441615 49.275203961270485 0.7
    vertex 61.001739441441615 95.27520396127049 24.7
    vertex 61.001739441441615 95.27520396127049 0.7
  endloop
endfacet
facet normal -1.0 -1.1939842912105718e-16 1.0772033649601827e-16
  outer loop
    vertex 61.001739441441615 43.6752039612705 0.7
    vertex 61.001739441441615 38.175203961270505 0.7
    vertex 61.001739441441615 43.6752039612705 12.7
  endloop
endfacet
facet normal -1.0 -1.1939842912105718e-16 1.0772033649601827e-16
  outer loop
    vertex 61.001739441441615 28.175203961270498 5.700000000000001
    vertex 61.00173944144163 28.175203961270498 0.7000000000000001
    vertex 61.00173944144163 22.675203961270498 0.7
  endloop
endfacet
facet normal -1.0 -1.1939842912105718e-16 1.0772033649601827e-16
  outer loop
    vertex 61.00173944144163 28.175203961270498 0.7000000000000001
    vertex 61.001739441441615 28.175203961270498 5.700000000000001
    vertex 61.00173944144163 28.175203961270498 1.7
  endloop
endfacet
facet normal -0.0 -0.0 1.0
  outer loop
    vertex 61.001739441441615 43.6752039612705 12.7
    vertex 57.00173944144162 49.275203961270485 12.7
    vertex 57.00173944144162 43.6752039612705 12.7
  endloop
endfacet
facet normal -0.0 -0.0 1.0
  outer loop
    vertex 57.00173944144162 49.275203961270485 12.7
    vertex 61.001739441441615 43.6752039612705 12.7
    vertex 61.001739441441615 49.275203961270485 12.7
  endloop
endfacet
facet normal 1.0 -0.0 0.0
  outer loop
    vertex 35.001739441441615 22.675203961270498 0.7
    vertex 35.001739441441615 26.675203961270494 4.7
    vertex 35.001739441441615 22.675203961270498 12.7
  endloop
endfacet
facet normal 1.0 -0.0 0.0
  outer loop
    vertex 35.001739441441615 26.675203961270494 4.7
    vertex 35.001739441441615 22.675203961270498 0.7
    vertex 35.001739441441615 43.6752039612705 0.7
  endloop
endfacet
facet normal 1.0 -0.0 0.0
  outer loop
    vertex 35.001739441441615 26.675203961270494 4.7
    vertex 35.001739441441615 43.6752039612705 0.7
    vertex 35.001739441441615 39.6752039612705 4.7
  endloop
endfacet
facet normal 1.0 -0.0 0.0
  outer loop
    vertex 35.001739441441615 39.6752039612705 4.7
    vertex 35.001739441441615 43.6752039612705 0.7
    vertex 35.001739441441615 39.6752039612705 12.7
  endloop
endfacet
facet normal 1.0 -0.0 0.0
  outer loop
    vertex 35.001739441441615 39.6752039612705 12.7
    vertex 35.001739441441615 43.6752039612705 0.7
    vertex 35.001739441441615 43.6752039612705 12.7
  endloop
endfacet
facet normal 1.0 -0.0 0.0
  outer loop
    vertex 35.001739441441615 26.675203961270494 12.7
    vertex 35.001739441441615 22.675203961270498 12.7
    vertex 35.001739441441615 26.675203961270494 4.7
  endloop
endfacet
facet normal -0.0 1.0 -0.0
  outer loop
    vertex 25.00173944144161 22.675203961270498 24.7
    vertex 34.20173944144162 22.675203961270498 0.7
    vertex 25.00173944144161 22.675203961270498 0.7
  endloop
endfacet
facet normal -0.0 1.0 -0.0
  outer loop
    vertex 34.20173944144162 22.675203961270498 0.7
    vertex 25.00173944144161 22.675203961270498 24.7
    vertex 34.20173944144162 22.675203961270498 12.7
  endloop
endfacet
facet normal -0.0 1.0 -0.0
  outer loop
    vertex 34.20173944144162 22.675203961270498 12.7
    vertex 25.00173944144161 22.675203961270498 24.7
    vertex 35.001739441441615 22.675203961270498 12.7
  endloop
endfacet
facet normal -0.0 1.0 -0.0
  outer loop
    vertex 35.001739441441615 22.675203961270498 12.7
    vertex 61.00173944144163 22.675203961270498 0.7
    vertex 35.001739441441615 22.675203961270498 0.7
  endloop
endfacet
facet normal -0.0 1.0 -0.0
  outer loop
    vertex 61.00173944144163 22.675203961270498 0.7
    vertex 35.001739441441615 22.675203961270498 12.7
    vertex 61.00173944144163 22.675203961270498 24.7
  endloop
endfacet
facet normal -0.0 1.0 -0.0
  outer loop
    vertex 61.00173944144163 22.675203961270498 24.7
    vertex 35.001739441441615 22.675203961270498 12.7
    vertex 25.00173944144161 22.675203961270498 24.7
  endloop
endfacet
facet normal 0.0 -1.0 0.0
  outer loop
    vertex 61.001739441441615 43.6752039612705 0.7
    vertex 57.00173944144162 43.6752039612705 4.7
    vertex 35.001739441441615 43.6752039612705 0.7
  endloop
endfacet
facet normal 0.0 -1.0 0.0
  outer loop
    vertex 57.00173944144162 43.6752039612705 4.7
    vertex 61.001739441441615 43.6752039612705 0.7
    vertex 61.001739441441615 43.6752039612705 12.7
  endloop
endfacet
facet normal 0.0 -1.0 0.0
  outer loop
    vertex 57.00173944144162 43.6752039612705 4.7
    vertex 61.001739441441615 43.6752039612705 12.7
    vertex 57.00173944144162 43.6752039612705 12.7
  endloop
endfacet
facet normal 0.0 -1.0 0.0
  outer loop
    vertex 35.001739441441615 43.6752039612705 0.7
    vertex 42.80173944144162 43.6752039612705 4.7
    vertex 35.001739441441615 43.6752039612705 12.7
  endloop
endfacet
facet normal 0.0 -1.0 0.0
  outer loop
    vertex 42.80173944144162 43.6752039612705 4.7
    vertex 35.001739441441615 43.6752039612705 0.7
    vertex 57.00173944144162 43.6752039612705 4.7
  endloop
endfacet
facet normal 0.0 -1.0 0.0
  outer loop
    vertex 35.001739441441615 43.6752039612705 12.7
    vertex 42.80173944144162 43.6752039612705 4.7
    vertex 42.80173944144162 43.6752039612705 12.7
  endloop
endfacet
facet normal -0.0 1.0 -0.0
  outer loop
    vertex 42.80173944144162 49.275203961270485 4.7
    vertex 61.001739441441615 49.275203961270485 0.7
    vertex 42.80173944144161 49.275203961270485 0.7
  endloop
endfacet
facet normal -0.0 1.0 -0.0
  outer loop
    vertex 61.001739441441615 49.275203961270485 0.7
    vertex 42.80173944144162 49.275203961270485 4.7
    vertex 57.00173944144162 49.275203961270485 4.7
  endloop
endfacet
facet normal -0.0 1.0 -0.0
  outer loop
    vertex 61.001739441441615 49.275203961270485 0.7
    vertex 57.00173944144162 49.275203961270485 4.7
    vertex 61.001739441441615 49.275203961270485 12.7
  endloop
endfacet
facet normal -0.0 1.0 -0.0
  outer loop
    vertex 61.001739441441615 49.275203961270485 12.7
    vertex 57.00173944144162 49.275203961270485 4.7
    vertex 57.00173944144162 49.275203961270485 12.7
  endloop
endfacet
facet normal 0.0 0.0 1.0
  outer loop
    vertex 24.20173944144161 21.875203961270493 24.7
    vertex 25.00173944144161 22.675203961270498 24.7
    vertex 24.20173944144161 96.07520396127049 24.7
  endloop
endfacet
facet normal 0.0 0.0 1.0
  outer loop
    vertex 25.00173944144161 22.675203961270498 24.7
    vertex 24.20173944144161 21.875203961270493 24.7
    vertex 61.80173944144161 21.875203961270493 24.7
  endloop
endfacet
facet normal 0.0 0.0 1.0
  outer loop
    vertex 25.00173944144161 22.675203961270498 24.7
    vertex 61.80173944144161 21.875203961270493 24.7
    vertex 61.00173944144163 22.675203961270498 24.7
  endloop
endfacet
facet normal 0.0 0.0 1.0
  outer loop
    vertex 24.20173944144161 96.07520396127049 24.7
    vertex 25.00173944144161 95.27520396127049 24.7
    vertex 61.80173944144161 96.07520396127049 24.7
  endloop
endfacet
facet normal 0.0 0.0 1.0
  outer loop
    vertex 25.00173944144161 95.27520396127049 24.7
    vertex 24.20173944144161 96.07520396127049 24.7
    vertex 25.00173944144161 22.675203961270498 24.7
  endloop
endfacet
facet normal 0.0 0.0 1.0
  outer loop
    vertex 61.80173944144161 96.07520396127049 24.7
    vertex 25.00173944144161 95.27520396127049 24.7
    vertex 61.001739441441615 95.27520396127049 24.7
  endloop
endfacet
facet normal 0.0 0.0 1.0
  outer loop
    vertex 61.80173944144161 96.07520396127049 24.7
    vertex 61.001739441441615 95.27520396127049 24.7
    vertex 61.00173944144163 22.675203961270498 24.7
  endloop
endfacet
facet normal 0.0 0.0 1.0
  outer loop
    vertex 61.80173944144161 96.07520396127049 24.7
    vertex 61.00173944144163 22.675203961270498 24.7
    vertex 61.80173944144161 21.875203961270493 24.7
  endloop
endfacet
facet normal -1.5421691701433947e-15 8.812395257959569e-18 1.0
  outer loop
    vertex 61.00173944144163 28.175203961270498 1.7
    vertex 61.801739441441605 38.17520396127048 1.700000000000001
    vertex 61.001739441441615 38.175203961270505 1.6999999999999997
  endloop
endfacet
facet normal -1.5421691701433947e-15 8.812395257959569e-18 1.0
  outer loop
    vertex 61.801739441441605 38.17520396127048 1.700000000000001
    vertex 61.00173944144163 28.175203961270498 1.7
    vertex 61.801739441441626 28.17520396127048 1.700000000000001
  endloop
endfacet
facet normal -8.47345697880979e-19 8.97392592460507e-19 1.0
  outer loop
    vertex 61.00173944144163 22.675203961270498 0.7
    vertex 35.001739441441615 43.6752039612705 0.7
    vertex 35.001739441441615 22.675203961270498 0.7
  endloop
endfacet
facet normal -8.47345697880979e-19 8.97392592460507e-19 1.0
  outer loop
    vertex 35.001739441441615 43.6752039612705 0.7
    vertex 61.00173944144163 22.675203961270498 0.7
    vertex 61.001739441441615 38.175203961270505 0.7
  endloop
endfacet
facet normal -8.47345697880979e-19 8.97392592460507e-19 1.0
  outer loop
    vertex 61.001739441441615 38.175203961270505 0.7
    vertex 61.00173944144163 22.675203961270498 0.7
    vertex 61.00173944144163 28.175203961270498 0.7000000000000001
  endloop
endfacet
facet normal -8.47345697880979e-19 8.97392592460507e-19 1.0
  outer loop
    vertex 61.001739441441615 43.6752039612705 0.7
    vertex 35.001739441441615 43.6752039612705 0.7
    vertex 61.001739441441615 38.175203961270505 0.7
  endloop
endfacet
facet normal -1.0 -1.1279865930191585e-15 -1.5421691701433947e-15
  outer loop
    vertex 61.001739441441615 38.175203961270505 1.6999999999999997
    vertex 61.00173944144163 28.175203961270498 0.7000000000000001
    vertex 61.00173944144163 28.175203961270498 1.7
  endloop
endfacet
facet normal -1.0 -1.1279865930191585e-15 -1.5421691701433947e-15
  outer loop
    vertex 61.00173944144163 28.175203961270498 0.7000000000000001
    vertex 61.001739441441615 38.175203961270505 1.6999999999999997
    vertex 61.001739441441615 38.175203961270505 0.7
  endloop
endfacet
facet normal -1.0 0.0 -0.0
  outer loop
    vertex 32.20173944144162 44.475203961270495 12.7
    vertex 32.20173944144162 43.6752039612705 4.7
    vertex 32.20173944144162 43.6752039612705 12.7
  endloop
endfacet
facet normal -1.0 0.0 -0.0
  outer loop
    vertex 32.20173944144162 43.6752039612705 4.7
    vertex 32.20173944144162 44.475203961270495 12.7
    vertex 32.20173944144162 44.475203961270495 4.7
  endloop
endfacet
facet normal 0.0 0.0 1.0
  outer loop
    vertex 32.20173944144162 43.6752039612705 4.7
    vertex 29.001739441441618 44.475203961270495 4.7
    vertex 29.001739441441618 43.6752039612705 4.7
  endloop
endfacet
facet normal 0.0 0.0 1.0
  outer loop
    vertex 29.001739441441618 44.475203961270495 4.7
    vertex 32.20173944144162 43.6752039612705 4.7
    vertex 32.20173944144162 44.475203961270495 4.7
  endloop
endfacet
facet normal 0.0 0.0 1.0
  outer loop
    vertex 38.001739441441615 73.4752039612705 4.7
    vertex 29.00173944144161 74.27520396127049 4.7
    vertex 29.00173944144161 73.4752039612705 4.7
  endloop
endfacet
facet normal 0.0 0.0 1.0
  outer loop
    vertex 29.00173944144161 74.27520396127049 4.7
    vertex 38.001739441441615 73.4752039612705 4.7
    vertex 38.001739441441615 74.27520396127049 4.7
  endloop
endfacet
facet normal 1.127986593019161e-14 -1.0 -0.0
  outer loop
    vertex 42.80173944144161 69.4752039612705 12.7
    vertex 42.001739441441615 69.4752039612705 4.7
    vertex 42.80173944144161 69.4752039612705 4.7
  endloop
endfacet
facet normal 1.127986593019161e-14 -1.0 -0.0
  outer loop
    vertex 42.001739441441615 69.4752039612705 4.7
    vertex 42.80173944144161 69.4752039612705 12.7
    vertex 42.001739441441615 69.4752039612705 12.7
  endloop
endfacet
facet normal 1.0 0.0 0.0
  outer loop
    vertex 29.001739441441618 44.475203961270495 4.7
    vertex 29.001739441441618 43.6752039612705 12.7
    vertex 29.001739441441618 43.6752039612705 4.7
  endloop
endfacet
facet normal 1.0 0.0 0.0
  outer loop
    vertex 29.001739441441618 43.6752039612705 12.7
    vertex 29.001739441441618 44.475203961270495 4.7
    vertex 29.001739441441618 44.475203961270495 12.7
  endloop
endfacet
facet normal -1.0 0.0 -0.0
  outer loop
    vertex 38.001739441441615 74.27520396127049 12.7
    vertex 38.001739441441615 73.4752039612705 4.7
    vertex 38.001739441441615 73.4752039612705 12.7
  endloop
endfacet
facet normal -1.0 0.0 -0.0
  outer loop
    vertex 38.001739441441615 73.4752039612705 4.7
    vertex 38.001739441441615 74.27520396127049 12.7
    vertex 38.001739441441615 74.27520396127049 4.7
  endloop
endfacet
facet normal 0.0 0.0 1.0
  outer loop
    vertex 42.80173944144161 78.27520396127049 4.7
    vertex 42.001739441441615 91.27520396127048 4.7
    vertex 42.001739441441615 78.27520396127049 4.7
  endloop
endfacet
facet normal 0.0 0.0 1.0
  outer loop
    vertex 42.001739441441615 91.27520396127048 4.7
    vertex 42.80173944144161 78.27520396127049 4.7
    vertex 42.80173944144161 91.27520396127048 4.7
  endloop
endfacet
facet normal -0.0 1.0 -0.0
  outer loop
    vertex 42.001739441441615 78.27520396127049 12.7
    vertex 42.80173944144161 78.27520396127049 4.7
    vertex 42.001739441441615 78.27520396127049 4.7
  endloop
endfacet
facet normal -0.0 1.0 -0.0
  outer loop
    vertex 42.80173944144161 78.27520396127049 4.7
    vertex 42.001739441441615 78.27520396127049 12.7
    vertex 42.80173944144161 78.27520396127049 12.7
  endloop
endfacet
facet normal -0.0 -0.0 1.0
  outer loop
    vertex 42.80173944144161 69.4752039612705 12.7
    vertex 42.001739441441615 73.4752039612705 12.7
    vertex 42.001739441441615 69.4752039612705 12.7
  endloop
endfacet
facet normal -0.0 -0.0 1.0
  outer loop
    vertex 42.001739441441615 73.4752039612705 12.7
    vertex 42.80173944144161 69.4752039612705 12.7
    vertex 42.001739441441615 74.27520396127049 12.7
  endloop
endfacet
facet normal -0.0 -0.0 1.0
  outer loop
    vertex 42.001739441441615 74.27520396127049 12.7
    vertex 42.80173944144161 69.4752039612705 12.7
    vertex 42.001739441441615 78.27520396127049 12.7
  endloop
endfacet
facet normal -0.0 -0.0 1.0
  outer loop
    vertex 42.001739441441615 78.27520396127049 12.7
    vertex 42.80173944144161 69.4752039612705 12.7
    vertex 42.80173944144161 78.27520396127049 12.7
  endloop
endfacet
facet normal -0.0 -0.0 1.0
  outer loop
    vertex 42.001739441441615 73.4752039612705 12.7
    vertex 38.001739441441615 74.27520396127049 12.7
    vertex 38.001739441441615 73.4752039612705 12.7
  endloop
endfacet
facet normal -0.0 -0.0 1.0
  outer loop
    vertex 38.001739441441615 74.27520396127049 12.7
    vertex 42.001739441441615 73.4752039612705 12.7
    vertex 42.001739441441615 74.27520396127049 12.7
  endloop
endfacet
facet normal 0.0 0.0 1.0
  outer loop
    vertex 42.80173944144161 53.275203961270485 4.7
    vertex 42.001739441441615 69.4752039612705 4.7
    vertex 42.001739441441615 53.275203961270485 4.7
  endloop
endfacet
facet normal 0.0 0.0 1.0
  outer loop
    vertex 42.001739441441615 69.4752039612705 4.7
    vertex 42.80173944144161 53.275203961270485 4.7
    vertex 42.80173944144161 69.4752039612705 4.7
  endloop
endfacet
facet normal -0.0 -0.0 1.0
  outer loop
    vertex 29.001739441441618 43.6752039612705 12.7
    vertex 25.001739441441615 44.475203961270495 12.7
    vertex 25.001739441441615 43.6752039612705 12.7
  endloop
endfacet
facet normal -0.0 -0.0 1.0
  outer loop
    vertex 25.001739441441615 44.475203961270495 12.7
    vertex 29.001739441441618 43.6752039612705 12.7
    vertex 29.001739441441618 44.475203961270495 12.7
  endloop
endfacet
facet normal -0.0 1.0 -0.0
  outer loop
    vertex 42.001739441441615 53.275203961270485 12.7
    vertex 42.80173944144161 53.275203961270485 4.7
    vertex 42.001739441441615 53.275203961270485 4.7
  endloop
endfacet
facet normal -0.0 1.0 -0.0
  outer loop
    vertex 42.80173944144161 53.275203961270485 4.7
    vertex 42.001739441441615 53.275203961270485 12.7
    vertex 42.80173944144161 53.275203961270485 12.7
  endloop
endfacet
facet normal -0.0 -0.0 1.0
  outer loop
    vertex 35.001739441441615 22.675203961270498 12.7
    vertex 34.20173944144162 26.675203961270494 12.7
    vertex 34.20173944144162 22.675203961270498 12.7
  endloop
endfacet
facet normal -0.0 -0.0 1.0
  outer loop
    vertex 34.20173944144162 26.675203961270494 12.7
    vertex 35.001739441441615 22.675203961270498 12.7
    vertex 35.001739441441615 26.675203961270494 12.7
  endloop
endfacet
facet normal -0.0 -1.0 -0.0
  outer loop
    vertex 42.80173944144161 91.27520396127048 12.7
    vertex 42.001739441441615 91.27520396127048 4.7
    vertex 42.80173944144161 91.27520396127048 4.7
  endloop
endfacet
facet normal -0.0 -1.0 -0.0
  outer loop
    vertex 42.001739441441615 91.27520396127048 4.7
    vertex 42.80173944144161 91.27520396127048 12.7
    vertex 42.001739441441615 91.27520396127048 12.7
  endloop
endfacet
facet normal -0.0 -0.0 1.0
  outer loop
    vertex 57.00173944144162 43.6752039612705 4.7
    vertex 42.80173944144162 49.275203961270485 4.7
    vertex 42.80173944144162 43.6752039612705 4.7
  endloop
endfacet
facet normal -0.0 -0.0 1.0
  outer loop
    vertex 42.80173944144162 49.275203961270485 4.7
    vertex 57.00173944144162 43.6752039612705 4.7
    vertex 57.00173944144162 49.275203961270485 4.7
  endloop
endfacet
facet normal -0.0 -0.0 1.0
  outer loop
    vertex 35.001739441441615 39.6752039612705 12.7
    vertex 34.20173944144162 43.6752039612705 12.7
    vertex 34.20173944144162 39.6752039612705 12.7
  endloop
endfacet
facet normal -0.0 -0.0 1.0
  outer loop
    vertex 34.20173944144162 43.6752039612705 12.7
    vertex 32.20173944144162 44.475203961270495 12.7
    vertex 32.20173944144162 43.6752039612705 12.7
  endloop
endfacet
facet normal -0.0 -0.0 1.0
  outer loop
    vertex 32.20173944144162 44.475203961270495 12.7
    vertex 34.20173944144162 43.6752039612705 12.7
    vertex 42.001739441441615 44.475203961270495 12.7
  endloop
endfacet
facet normal -0.0 -0.0 1.0
  outer loop
    vertex 42.001739441441615 44.475203961270495 12.7
    vertex 34.20173944144162 43.6752039612705 12.7
    vertex 35.001739441441615 43.6752039612705 12.7
  endloop
endfacet
facet normal -0.0 -0.0 1.0
  outer loop
    vertex 35.001739441441615 43.6752039612705 12.7
    vertex 34.20173944144162 43.6752039612705 12.7
    vertex 35.001739441441615 39.6752039612705 12.7
  endloop
endfacet
facet normal -0.0 -0.0 1.0
  outer loop
    vertex 42.001739441441615 44.475203961270495 12.7
    vertex 35.001739441441615 43.6752039612705 12.7
    vertex 42.80173944144162 43.6752039612705 12.7
  endloop
endfacet
facet normal -0.0 -0.0 1.0
  outer loop
    vertex 42.001739441441615 44.475203961270495 12.7
    vertex 42.80173944144162 43.6752039612705 12.7
    vertex 42.001739441441615 53.275203961270485 12.7
  endloop
endfacet
facet normal -0.0 -0.0 1.0
  outer loop
    vertex 42.001739441441615 53.275203961270485 12.7
    vertex 42.80173944144162 43.6752039612705 12.7
    vertex 42.80173944144161 53.275203961270485 12.7
  endloop
endfacet
facet normal -1.0 0.0 0.0
  outer loop
    vertex 57.00173944144162 49.275203961270485 12.7
    vertex 57.00173944144162 43.6752039612705 4.7
    vertex 57.00173944144162 43.6752039612705 12.7
  endloop
endfacet
facet normal -1.0 0.0 0.0
  outer loop
    vertex 57.00173944144162 43.6752039612705 4.7
    vertex 57.00173944144162 49.275203961270485 12.7
    vertex 57.00173944144162 49.275203961270485 4.7
  endloop
endfacet
facet normal -0.0 -0.0 1.0
  outer loop
    vertex 29.00173944144161 73.4752039612705 12.7
    vertex 25.00173944144161 74.27520396127049 12.7
    vertex 25.00173944144161 73.4752039612705 12.7
  endloop
endfacet
facet normal -0.0 -0.0 1.0
  outer loop
    vertex 25.00173944144161 74.27520396127049 12.7
    vertex 29.00173944144161 73.4752039612705 12.7
    vertex 29.00173944144161 74.27520396127049 12.7
  endloop
endfacet
facet normal 1.0 0.0 0.0
  outer loop
    vertex 29.00173944144161 74.27520396127049 4.7
    vertex 29.00173944144161 73.4752039612705 12.7
    vertex 29.00173944144161 73.4752039612705 4.7
  endloop
endfacet
facet normal 1.0 0.0 0.0
  outer loop
    vertex 29.00173944144161 73.4752039612705 12.7
    vertex 29.00173944144161 74.27520396127049 4.7
    vertex 29.00173944144161 74.27520396127049 12.7
  endloop
endfacet
facet normal -0.0 -1.0 -0.0
  outer loop
    vertex 61.80173944144165 37.6752039612705 12.7
    vertex 61.001739441441615 37.6752039612705 8.700000000000001
    vertex 61.80173944144165 37.6752039612705 8.700000000000001
  endloop
endfacet
facet normal -0.0 -1.0 -0.0
  outer loop
    vertex 61.001739441441615 37.6752039612705 8.700000000000001
    vertex 61.80173944144165 37.6752039612705 12.7
    vertex 61.001739441441615 37.6752039612705 12.7
  endloop
endfacet
facet normal -0.0 -0.6087614290087238 0.793353340291233
  outer loop
    vertex 25.00173944144161 34.425203961270505 3.534936490538904
    vertex 24.20173944144161 34.94297091423687 3.9322330470336313
    vertex 24.20173944144161 34.425203961270505 3.534936490538904
  endloop
endfacet
facet normal -0.0 -0.6087614290087238 0.793353340291233
  outer loop
    vertex 24.20173944144161 34.94297091423687 3.9322330470336313
    vertex 25.00173944144161 34.425203961270505 3.534936490538904
    vertex 25.00173944144161 34.94297091423687 3.9322330470336313
  endloop
endfacet
facet normal -0.0 -0.3826834323650902 -0.9238795325112866
  outer loop
    vertex 25.00173944144161 34.4252039612705 7.8650635094610974
    vertex 24.20173944144161 33.8222515740268 8.114814565722671
    vertex 24.20173944144161 34.4252039612705 7.8650635094610974
  endloop
endfacet
facet normal -0.0 -0.3826834323650902 -0.9238795325112866
  outer loop
    vertex 24.20173944144161 33.8222515740268 8.114814565722671
    vertex 25.00173944144161 34.4252039612705 7.8650635094610974
    vertex 25.00173944144161 33.8222515740268 8.114814565722671
  endloop
endfacet
facet normal -0.0 -0.13052619222005188 -0.9914448613738104
  outer loop
    vertex 25.00173944144161 33.8222515740268 8.114814565722671
    vertex 24.20173944144161 33.1752039612705 8.200000000000001
    vertex 24.20173944144161 33.8222515740268 8.114814565722671
  endloop
endfacet
facet normal -0.0 -0.13052619222005188 -0.9914448613738104
  outer loop
    vertex 24.20173944144161 33.1752039612705 8.200000000000001
    vertex 25.00173944144161 33.8222515740268 8.114814565722671
    vertex 25.00173944144161 33.1752039612705 8.200000000000001
  endloop
endfacet
facet normal -0.0 0.7933533402912362 -0.6087614290087197
  outer loop
    vertex 24.20173944144161 31.407437008304132 7.467766952966368
    vertex 25.00173944144161 31.010140451809406 6.949999999999998
    vertex 24.20173944144161 31.010140451809406 6.949999999999998
  endloop
endfacet
facet normal -0.0 0.7933533402912362 -0.6087614290087197
  outer loop
    vertex 25.00173944144161 31.010140451809406 6.949999999999998
    vertex 24.20173944144161 31.407437008304132 7.467766952966368
    vertex 25.00173944144161 31.407437008304132 7.467766952966368
  endloop
endfacet
facet normal -0.0 -0.7933533402912356 0.6087614290087201
  outer loop
    vertex 25.00173944144161 35.3402674707316 4.45
    vertex 24.20173944144161 34.94297091423687 3.9322330470336313
    vertex 25.00173944144161 34.94297091423687 3.9322330470336313
  endloop
endfacet
facet normal -0.0 -0.7933533402912356 0.6087614290087201
  outer loop
    vertex 24.20173944144161 34.94297091423687 3.9322330470336313
    vertex 25.00173944144161 35.3402674707316 4.45
    vertex 24.20173944144161 35.3402674707316 4.45
  endloop
endfacet
facet normal -0.0 -0.13052619222005188 0.9914448613738104
  outer loop
    vertex 25.00173944144161 33.1752039612705 3.1999999999999997
    vertex 24.20173944144161 33.8222515740268 3.285185434277329
    vertex 24.20173944144161 33.1752039612705 3.1999999999999997
  endloop
endfacet
facet normal -0.0 -0.13052619222005188 0.9914448613738104
  outer loop
    vertex 24.20173944144161 33.8222515740268 3.285185434277329
    vertex 25.00173944144161 33.1752039612705 3.1999999999999997
    vertex 25.00173944144161 33.8222515740268 3.285185434277329
  endloop
endfacet
facet normal -0.0 -0.9914448613738098 -0.13052619222005585
  outer loop
    vertex 25.00173944144161 35.59001852699317 6.3470476127563025
    vertex 24.20173944144161 35.6752039612705 5.7
    vertex 25.00173944144161 35.6752039612705 5.7
  endloop
endfacet
facet normal -0.0 -0.9914448613738098 -0.13052619222005585
  outer loop
    vertex 24.20173944144161 35.6752039612705 5.7
    vertex 25.00173944144161 35.59001852699317 6.3470476127563025
    vertex 24.20173944144161 35.59001852699317 6.3470476127563025
  endloop
endfacet
facet normal 4.699944137579829e-16 -1.0 0.0
  outer loop
    vertex 61.801739441441605 38.17520396127048 1.700000000000001
    vertex 61.001739441441615 38.175203961270505 5.700000000000001
    vertex 61.001739441441615 38.175203961270505 1.6999999999999997
  endloop
endfacet
facet normal 4.699944137579829e-16 -1.0 0.0
  outer loop
    vertex 61.001739441441615 38.175203961270505 5.700000000000001
    vertex 61.801739441441605 38.17520396127048 1.700000000000001
    vertex 61.801739441441605 38.17520396127048 5.700000000000001
  endloop
endfacet
facet normal -0.0 0.13052619222005188 -0.9914448613738104
  outer loop
    vertex 25.00173944144161 33.1752039612705 8.200000000000001
    vertex 24.20173944144161 32.5281563485142 8.114814565722671
    vertex 24.20173944144161 33.1752039612705 8.200000000000001
  endloop
endfacet
facet normal -0.0 0.13052619222005188 -0.9914448613738104
  outer loop
    vertex 24.20173944144161 32.5281563485142 8.114814565722671
    vertex 25.00173944144161 33.1752039612705 8.200000000000001
    vertex 25.00173944144161 32.5281563485142 8.114814565722671
  endloop
endfacet
facet normal 0.0 0.13052619222005188 0.9914448613738104
  outer loop
    vertex 25.00173944144161 32.5281563485142 3.285185434277329
    vertex 24.20173944144161 33.1752039612705 3.1999999999999997
    vertex 24.20173944144161 32.5281563485142 3.285185434277329
  endloop
endfacet
facet normal 0.0 0.13052619222005188 0.9914448613738104
  outer loop
    vertex 24.20173944144161 33.1752039612705 3.1999999999999997
    vertex 25.00173944144161 32.5281563485142 3.285185434277329
    vertex 25.00173944144161 33.1752039612705 3.1999999999999997
  endloop
endfacet
facet normal -0.0 -0.6087614290087197 -0.7933533402912362
  outer loop
    vertex 25.00173944144161 34.94297091423687 7.46776695296637
    vertex 24.20173944144161 34.4252039612705 7.8650635094610974
    vertex 24.20173944144161 34.94297091423687 7.46776695296637
  endloop
endfacet
facet normal -0.0 -0.6087614290087197 -0.7933533402912362
  outer loop
    vertex 24.20173944144161 34.4252039612705 7.8650635094610974
    vertex 25.00173944144161 34.94297091423687 7.46776695296637
    vertex 25.00173944144161 34.4252039612705 7.8650635094610974
  endloop
endfacet
facet normal -0.0 0.9914448613738099 -0.13052619222005613
  outer loop
    vertex 24.20173944144161 30.76038939554783 6.347047612756301
    vertex 25.00173944144161 30.675203961270498 5.699999999999999
    vertex 24.20173944144161 30.675203961270498 5.699999999999999
  endloop
endfacet
facet normal -0.0 0.9914448613738099 -0.13052619222005613
  outer loop
    vertex 25.00173944144161 30.675203961270498 5.699999999999999
    vertex 24.20173944144161 30.76038939554783 6.347047612756301
    vertex 25.00173944144161 30.76038939554783 6.347047612756301
  endloop
endfacet
facet normal 0.0 0.99144486137381 0.1305261922200557
  outer loop
    vertex 24.20173944144161 30.675203961270498 5.699999999999999
    vertex 25.00173944144161 30.76038939554783 5.052952387243696
    vertex 24.20173944144161 30.76038939554783 5.052952387243696
  endloop
endfacet
facet normal 0.0 0.99144486137381 0.1305261922200557
  outer loop
    vertex 25.00173944144161 30.76038939554783 5.052952387243696
    vertex 24.20173944144161 30.675203961270498 5.699999999999999
    vertex 25.00173944144161 30.675203961270498 5.699999999999999
  endloop
endfacet
facet normal -0.0 -0.3826834323650881 0.9238795325112875
  outer loop
    vertex 25.00173944144161 33.8222515740268 3.285185434277329
    vertex 24.20173944144161 34.425203961270505 3.534936490538904
    vertex 24.20173944144161 33.8222515740268 3.285185434277329
  endloop
endfacet
facet normal -0.0 -0.3826834323650881 0.9238795325112875
  outer loop
    vertex 24.20173944144161 34.425203961270505 3.534936490538904
    vertex 25.00173944144161 33.8222515740268 3.285185434277329
    vertex 25.00173944144161 34.425203961270505 3.534936490538904
  endloop
endfacet
facet normal -0.0 -0.923879532511287 0.3826834323650895
  outer loop
    vertex 25.00173944144161 35.59001852699317 5.052952387243698
    vertex 24.20173944144161 35.3402674707316 4.45
    vertex 25.00173944144161 35.3402674707316 4.45
  endloop
endfacet
facet normal -0.0 -0.923879532511287 0.3826834323650895
  outer loop
    vertex 24.20173944144161 35.3402674707316 4.45
    vertex 25.00173944144161 35.59001852699317 5.052952387243698
    vertex 24.20173944144161 35.59001852699317 5.052952387243698
  endloop
endfacet
facet normal -0.0 0.923879532511287 -0.3826834323650895
  outer loop
    vertex 24.20173944144161 31.010140451809406 6.949999999999998
    vertex 25.00173944144161 30.76038939554783 6.347047612756301
    vertex 24.20173944144161 30.76038939554783 6.347047612756301
  endloop
endfacet
facet normal -0.0 0.923879532511287 -0.3826834323650895
  outer loop
    vertex 25.00173944144161 30.76038939554783 6.347047612756301
    vertex 24.20173944144161 31.010140451809406 6.949999999999998
    vertex 25.00173944144161 31.010140451809406 6.949999999999998
  endloop
endfacet
facet normal 0.0 0.9238795325112867 0.38268343236508984
  outer loop
    vertex 24.20173944144161 30.76038939554783 5.052952387243696
    vertex 25.00173944144161 31.010140451809406 4.449999999999999
    vertex 24.20173944144161 31.010140451809406 4.449999999999999
  endloop
endfacet
facet normal 0.0 0.9238795325112867 0.38268343236508984
  outer loop
    vertex 25.00173944144161 31.010140451809406 4.449999999999999
    vertex 24.20173944144161 30.76038939554783 5.052952387243696
    vertex 25.00173944144161 30.76038939554783 5.052952387243696
  endloop
endfacet
facet normal 0.0 0.7933533402912354 0.6087614290087207
  outer loop
    vertex 24.20173944144161 31.010140451809406 4.449999999999999
    vertex 25.00173944144161 31.407437008304132 3.9322330470336304
    vertex 24.20173944144161 31.407437008304132 3.9322330470336304
  endloop
endfacet
facet normal 0.0 0.7933533402912354 0.6087614290087207
  outer loop
    vertex 25.00173944144161 31.407437008304132 3.9322330470336304
    vertex 24.20173944144161 31.010140451809406 4.449999999999999
    vertex 25.00173944144161 31.010140451809406 4.449999999999999
  endloop
endfacet
facet normal 0.0 0.6087614290087197 0.7933533402912362
  outer loop
    vertex 25.00173944144161 31.407437008304132 3.9322330470336304
    vertex 24.20173944144161 31.9252039612705 3.534936490538903
    vertex 24.20173944144161 31.407437008304132 3.9322330470336304
  endloop
endfacet
facet normal 0.0 0.6087614290087197 0.7933533402912362
  outer loop
    vertex 24.20173944144161 31.9252039612705 3.534936490538903
    vertex 25.00173944144161 31.407437008304132 3.9322330470336304
    vertex 25.00173944144161 31.9252039612705 3.534936490538903
  endloop
endfacet
facet normal 0.0 0.3826834323650902 0.9238795325112866
  outer loop
    vertex 25.00173944144161 31.9252039612705 3.534936490538903
    vertex 24.20173944144161 32.5281563485142 3.285185434277329
    vertex 24.20173944144161 31.9252039612705 3.534936490538903
  endloop
endfacet
facet normal 0.0 0.3826834323650902 0.9238795325112866
  outer loop
    vertex 24.20173944144161 32.5281563485142 3.285185434277329
    vertex 25.00173944144161 31.9252039612705 3.534936490538903
    vertex 25.00173944144161 32.5281563485142 3.285185434277329
  endloop
endfacet
facet normal -4.699944137579829e-16 1.0 -1.0602947950258083e-30
  outer loop
    vertex 61.001739441441615 28.175203961270498 5.700000000000001
    vertex 61.801739441441626 28.17520396127048 1.700000000000001
    vertex 61.00173944144163 28.175203961270498 1.7
  endloop
endfacet
facet normal -4.699944137579829e-16 1.0 -1.0602947950258083e-30
  outer loop
    vertex 61.801739441441626 28.17520396127048 1.700000000000001
    vertex 61.001739441441615 28.175203961270498 5.700000000000001
    vertex 61.801739441441605 28.17520396127048 5.700000000000001
  endloop
endfacet
facet normal -0.0 1.0 -0.0
  outer loop
    vertex 34.20173944144162 26.675203961270494 12.7
    vertex 35.001739441441615 26.675203961270494 4.7
    vertex 34.20173944144162 26.675203961270494 4.7
  endloop
endfacet
facet normal -0.0 1.0 -0.0
  outer loop
    vertex 35.001739441441615 26.675203961270494 4.7
    vertex 34.20173944144162 26.675203961270494 12.7
    vertex 35.001739441441615 26.675203961270494 12.7
  endloop
endfacet
facet normal -0.0 -1.566648045859943e-16 1.0
  outer loop
    vertex 61.80173944144165 28.675203961270498 8.7
    vertex 61.001739441441615 37.6752039612705 8.700000000000001
    vertex 61.001739441441615 28.675203961270498 8.7
  endloop
endfacet
facet normal -0.0 -1.566648045859943e-16 1.0
  outer loop
    vertex 61.001739441441615 37.6752039612705 8.700000000000001
    vertex 61.80173944144165 28.675203961270498 8.7
    vertex 61.80173944144165 37.6752039612705 8.700000000000001
  endloop
endfacet
facet normal -0.0 0.3826834323650891 -0.9238795325112872
  outer loop
    vertex 25.00173944144161 32.5281563485142 8.114814565722671
    vertex 24.20173944144161 31.925203961270498 7.865063509461096
    vertex 24.20173944144161 32.5281563485142 8.114814565722671
  endloop
endfacet
facet normal -0.0 0.3826834323650891 -0.9238795325112872
  outer loop
    vertex 24.20173944144161 31.925203961270498 7.865063509461096
    vertex 25.00173944144161 32.5281563485142 8.114814565722671
    vertex 25.00173944144161 31.925203961270498 7.865063509461096
  endloop
endfacet
facet normal -0.0 1.0 -0.0
  outer loop
    vertex 61.001739441441615 28.675203961270498 12.7
    vertex 61.80173944144165 28.675203961270498 8.7
    vertex 61.001739441441615 28.675203961270498 8.7
  endloop
endfacet
facet normal -0.0 1.0 -0.0
  outer loop
    vertex 61.80173944144165 28.675203961270498 8.7
    vertex 61.001739441441615 28.675203961270498 12.7
    vertex 61.80173944144165 28.675203961270498 12.7
  endloop
endfacet
facet normal -0.0 0.6087614290087238 -0.793353340291233
  outer loop
    vertex 25.00173944144161 31.925203961270498 7.865063509461096
    vertex 24.20173944144161 31.407437008304132 7.467766952966368
    vertex 24.20173944144161 31.925203961270498 7.865063509461096
  endloop
endfacet
facet normal -0.0 0.6087614290087238 -0.793353340291233
  outer loop
    vertex 24.20173944144161 31.407437008304132 7.467766952966368
    vertex 25.00173944144161 31.925203961270498 7.865063509461096
    vertex 25.00173944144161 31.407437008304132 7.467766952966368
  endloop
endfacet
facet normal 0.0 0.0 1.0
  outer loop
    vertex 35.001739441441615 26.675203961270494 4.7
    vertex 34.20173944144162 39.6752039612705 4.7
    vertex 34.20173944144162 26.675203961270494 4.7
  endloop
endfacet
facet normal 0.0 0.0 1.0
  outer loop
    vertex 34.20173944144162 39.6752039612705 4.7
    vertex 35.001739441441615 26.675203961270494 4.7
    vertex 35.001739441441615 39.6752039612705 4.7
  endloop
endfacet
facet normal -0.0 -1.0 -0.0
  outer loop
    vertex 35.001739441441615 39.6752039612705 12.7
    vertex 34.20173944144162 39.6752039612705 4.7
    vertex 35.001739441441615 39.6752039612705 4.7
  endloop
endfacet
facet normal -0.0 -1.0 -0.0
  outer loop
    vertex 34.20173944144162 39.6752039612705 4.7
    vertex 35.001739441441615 39.6752039612705 12.7
    vertex 34.20173944144162 39.6752039612705 12.7
  endloop
endfacet
facet normal -0.0 0.0 -1.0
  outer loop
    vertex 61.80173944144165 37.6752039612705 12.7
    vertex 61.001739441441615 28.675203961270498 12.7
    vertex 61.001739441441615 37.6752039612705 12.7
  endloop
endfacet
facet normal -0.0 0.0 -1.0
  outer loop
    vertex 61.001739441441615 28.675203961270498 12.7
    vertex 61.80173944144165 37.6752039612705 12.7
    vertex 61.80173944144165 28.675203961270498 12.7
  endloop
endfacet
facet normal -0.0 -0.9914448613738099 0.130526192220056
  outer loop
    vertex 25.00173944144161 35.6752039612705 5.7
    vertex 24.20173944144161 35.59001852699317 5.052952387243698
    vertex 25.00173944144161 35.59001852699317 5.052952387243698
  endloop
endfacet
facet normal -0.0 -0.9914448613738099 0.130526192220056
  outer loop
    vertex 24.20173944144161 35.59001852699317 5.052952387243698
    vertex 25.00173944144161 35.6752039612705 5.7
    vertex 24.20173944144161 35.6752039612705 5.7
  endloop
endfacet
facet normal -0.0 -0.9238795325112872 -0.38268343236508917
  outer loop
    vertex 25.00173944144161 35.3402674707316 6.950000000000001
    vertex 24.20173944144161 35.59001852699317 6.3470476127563025
    vertex 25.00173944144161 35.59001852699317 6.3470476127563025
  endloop
endfacet
facet normal -0.0 -0.9238795325112872 -0.38268343236508917
  outer loop
    vertex 24.20173944144161 35.59001852699317 6.3470476127563025
    vertex 25.00173944144161 35.3402674707316 6.950000000000001
    vertex 24.20173944144161 35.3402674707316 6.950000000000001
  endloop
endfacet
facet normal -0.0 -0.7933533402912354 -0.6087614290087207
  outer loop
    vertex 25.00173944144161 34.94297091423687 7.46776695296637
    vertex 24.20173944144161 35.3402674707316 6.950000000000001
    vertex 25.00173944144161 35.3402674707316 6.950000000000001
  endloop
endfacet
facet normal -0.0 -0.7933533402912354 -0.6087614290087207
  outer loop
    vertex 24.20173944144161 35.3402674707316 6.950000000000001
    vertex 25.00173944144161 34.94297091423687 7.46776695296637
    vertex 24.20173944144161 34.94297091423687 7.46776695296637
  endloop
endfacet
facet normal 1.127986593019159e-15 0.0 -1.0
  outer loop
    vertex 61.801739441441605 38.17520396127048 5.700000000000001
    vertex 61.001739441441615 28.175203961270498 5.700000000000001
    vertex 61.001739441441615 38.175203961270505 5.700000000000001
  endloop
endfacet
facet normal 1.127986593019159e-15 0.0 -1.0
  outer loop
    vertex 61.001739441441615 28.175203961270498 5.700000000000001
    vertex 61.801739441441605 38.17520396127048 5.700000000000001
    vertex 61.801739441441605 28.17520396127048 5.700000000000001
  endloop
endfacet
endsolid Housing
