solid Housing
facet normal 0.0 0.0 -1.0
  outer loop
    vertex 125.1510708352587 97.47430795003767 0.0
    vertex 87.5510708352587 23.274307950037663 0.0
    vertex 87.5510708352587 97.47430795003767 0.0
  endloop
endfacet
facet normal 0.0 0.0 -1.0
  outer loop
    vertex 87.5510708352587 23.274307950037663 0.0
    vertex 125.1510708352587 97.47430795003767 0.0
    vertex 125.1510708352587 23.274307950037663 0.0
  endloop
endfacet
facet normal 0.0 -1.0 0.0
  outer loop
    vertex 125.1510708352587 23.274307950037663 0.7
    vertex 87.5510708352587 23.274307950037663 0.0
    vertex 125.1510708352587 23.274307950037663 0.0
  endloop
endfacet
facet normal 0.0 -1.0 0.0
  outer loop
    vertex 87.5510708352587 23.274307950037663 0.0
    vertex 125.1510708352587 23.274307950037663 0.7
    vertex 87.5510708352587 23.274307950037663 0.7
  endloop
endfacet
facet normal -0.0 1.0 -0.0
  outer loop
    vertex 87.5510708352587 97.47430795003767 0.7
    vertex 125.1510708352587 97.47430795003767 0.0
    vertex 87.5510708352587 97.47430795003767 0.0
  endloop
endfacet
facet normal -0.0 1.0 -0.0
  outer loop
    vertex 125.1510708352587 97.47430795003767 0.0
    vertex 87.5510708352587 97.47430795003767 0.7
    vertex 125.1510708352587 97.47430795003767 0.7
  endloop
endfacet
facet normal -1.0 0.0 0.0
  outer loop
    vertex 87.5510708352587 97.47430795003767 0.7
    vertex 87.5510708352587 23.274307950037663 0.0
    vertex 87.5510708352587 23.274307950037663 0.7
  endloop
endfacet
facet normal -1.0 0.0 0.0
  outer loop
    vertex 87.5510708352587 23.274307950037663 0.0
    vertex 87.5510708352587 97.47430795003767 0.7
    vertex 87.5510708352587 97.47430795003767 0.0
  endloop
endfacet
facet normal 0.0 0.0 1.0
  outer loop
    vertex 88.45107083525869 24.174307950037665 5.3
    vertex 89.25107083525869 24.974307950037666 5.3
    vertex 88.45107083525869 96.57430795003766 5.3
  endloop
endfacet
facet normal 0.0 0.0 1.0
  outer loop
    vertex 89.25107083525869 24.974307950037666 5.3
    vertex 88.45107083525869 24.174307950037665 5.3
    vertex 124.25107083525867 24.174307950037665 5.3
  endloop
endfacet
facet normal 0.0 0.0 1.0
  outer loop
    vertex 89.25107083525869 24.974307950037666 5.3
    vertex 124.25107083525867 24.174307950037665 5.3
    vertex 123.45107083525868 24.974307950037666 5.3
  endloop
endfacet
facet normal 0.0 0.0 1.0
  outer loop
    vertex 123.45107083525868 24.974307950037666 5.3
    vertex 124.25107083525867 24.174307950037665 5.3
    vertex 123.45107083525868 95.77430795003767 5.3
  endloop
endfacet
facet normal 0.0 0.0 1.0
  outer loop
    vertex 88.45107083525869 96.57430795003766 5.3
    vertex 89.25107083525869 95.77430795003767 5.3
    vertex 124.25107083525867 96.57430795003766 5.3
  endloop
endfacet
facet normal 0.0 0.0 1.0
  outer loop
    vertex 89.25107083525869 95.77430795003767 5.3
    vertex 88.45107083525869 96.57430795003766 5.3
    vertex 89.25107083525869 24.974307950037666 5.3
  endloop
endfacet
facet normal 0.0 0.0 1.0
  outer loop
    vertex 124.25107083525867 96.57430795003766 5.3
    vertex 89.25107083525869 95.77430795003767 5.3
    vertex 123.45107083525868 95.77430795003767 5.3
  endloop
endfacet
facet normal 0.0 0.0 1.0
  outer loop
    vertex 124.25107083525867 96.57430795003766 5.3
    vertex 123.45107083525868 95.77430795003767 5.3
    vertex 124.25107083525867 24.174307950037665 5.3
  endloop
endfacet
facet normal -1.0 0.0 0.0
  outer loop
    vertex 88.45107083525869 96.57430795003766 5.3
    vertex 88.45107083525869 24.174307950037665 0.7
    vertex 88.45107083525869 24.174307950037665 5.3
  endloop
endfacet
facet normal -1.0 0.0 0.0
  outer loop
    vertex 88.45107083525869 24.174307950037665 0.7
    vertex 88.45107083525869 96.57430795003766 5.3
    vertex 88.45107083525869 96.57430795003766 0.7
  endloop
endfacet
facet normal -0.0 -0.0 1.0
  outer loop
    vertex 87.5510708352587 23.274307950037663 0.7
    vertex 88.45107083525869 24.174307950037665 0.7
    vertex 87.5510708352587 97.47430795003767 0.7
  endloop
endfacet
facet normal -0.0 -0.0 1.0
  outer loop
    vertex 88.45107083525869 24.174307950037665 0.7
    vertex 87.5510708352587 23.274307950037663 0.7
    vertex 125.1510708352587 23.274307950037663 0.7
  endloop
endfacet
facet normal -0.0 -0.0 1.0
  outer loop
    vertex 88.45107083525869 24.174307950037665 0.7
    vertex 125.1510708352587 23.274307950037663 0.7
    vertex 124.25107083525867 24.174307950037665 0.7
  endloop
endfacet
facet normal -0.0 -0.0 1.0
  outer loop
    vertex 124.25107083525867 24.174307950037665 0.7
    vertex 125.1510708352587 23.274307950037663 0.7
    vertex 124.25107083525867 96.57430795003766 0.7
  endloop
endfacet
facet normal -0.0 -0.0 1.0
  outer loop
    vertex 87.5510708352587 97.47430795003767 0.7
    vertex 88.45107083525869 96.57430795003766 0.7
    vertex 125.1510708352587 97.47430795003767 0.7
  endloop
endfacet
facet normal -0.0 -0.0 1.0
  outer loop
    vertex 88.45107083525869 96.57430795003766 0.7
    vertex 87.5510708352587 97.47430795003767 0.7
    vertex 88.45107083525869 24.174307950037665 0.7
  endloop
endfacet
facet normal -0.0 -0.0 1.0
  outer loop
    vertex 125.1510708352587 97.47430795003767 0.7
    vertex 88.45107083525869 96.57430795003766 0.7
    vertex 124.25107083525867 96.57430795003766 0.7
  endloop
endfacet
facet normal -0.0 -0.0 1.0
  outer loop
    vertex 125.1510708352587 97.47430795003767 0.7
    vertex 124.25107083525867 96.57430795003766 0.7
    vertex 125.1510708352587 23.274307950037663 0.7
  endloop
endfacet
facet normal 1.0 -0.0 -0.0
  outer loop
    vertex 125.1510708352587 97.47430795003767 0.0
    vertex 125.1510708352587 23.274307950037663 0.7
    vertex 125.1510708352587 23.274307950037663 0.0
  endloop
endfacet
facet normal 1.0 -0.0 -0.0
  outer loop
    vertex 125.1510708352587 23.274307950037663 0.7
    vertex 125.1510708352587 97.47430795003767 0.0
    vertex 125.1510708352587 97.47430795003767 0.7
  endloop
endfacet
facet normal 1.0 -0.0 -0.0
  outer loop
    vertex 124.25107083525867 96.57430795003766 0.7
    vertex 124.25107083525867 24.174307950037665 5.3
    vertex 124.25107083525867 24.174307950037665 0.7
  endloop
endfacet
facet normal 1.0 -0.0 -0.0
  outer loop
    vertex 124.25107083525867 24.174307950037665 5.3
    vertex 124.25107083525867 96.57430795003766 0.7
    vertex 124.25107083525867 96.57430795003766 5.3
  endloop
endfacet
facet normal 0.0 -1.0 0.0
  outer loop
    vertex 124.25107083525867 24.174307950037665 5.3
    vertex 88.45107083525869 24.174307950037665 0.7
    vertex 124.25107083525867 24.174307950037665 0.7
  endloop
endfacet
facet normal 0.0 -1.0 0.0
  outer loop
    vertex 88.45107083525869 24.174307950037665 0.7
    vertex 124.25107083525867 24.174307950037665 5.3
    vertex 88.45107083525869 24.174307950037665 5.3
  endloop
endfacet
facet normal -0.0 1.0 -0.0
  outer loop
    vertex 88.45107083525869 96.57430795003766 5.3
    vertex 124.25107083525867 96.57430795003766 0.7
    vertex 88.45107083525869 96.57430795003766 0.7
  endloop
endfacet
facet normal -0.0 1.0 -0.0
  outer loop
    vertex 124.25107083525867 96.57430795003766 0.7
    vertex 88.45107083525869 96.57430795003766 5.3
    vertex 124.25107083525867 96.57430795003766 5.3
  endloop
endfacet
facet normal -0.0 1.0 -0.0
  outer loop
    vertex 89.25107083525869 24.974307950037666 5.3
    vertex 123.45107083525868 24.974307950037666 0.6999999999999931
    vertex 89.25107083525869 24.974307950037666 0.6999999999999931
  endloop
endfacet
facet normal -0.0 1.0 -0.0
  outer loop
    vertex 123.45107083525868 24.974307950037666 0.6999999999999931
    vertex 89.25107083525869 24.974307950037666 5.3
    vertex 123.45107083525868 24.974307950037666 5.3
  endloop
endfacet
facet normal -0.0 -1.0 -0.0
  outer loop
    vertex 123.45107083525868 95.77430795003767 5.3
    vertex 89.25107083525869 95.77430795003767 0.6999999999999931
    vertex 123.45107083525868 95.77430795003767 0.6999999999999931
  endloop
endfacet
facet normal -0.0 -1.0 -0.0
  outer loop
    vertex 89.25107083525869 95.77430795003767 0.6999999999999931
    vertex 123.45107083525868 95.77430795003767 5.3
    vertex 89.25107083525869 95.77430795003767 5.3
  endloop
endfacet
facet normal 0.0 0.0 1.0
  outer loop
    vertex 123.45107083525868 24.974307950037666 0.6999999999999931
    vertex 89.25107083525869 95.77430795003767 0.6999999999999931
    vertex 89.25107083525869 24.974307950037666 0.6999999999999931
  endloop
endfacet
facet normal 0.0 0.0 1.0
  outer loop
    vertex 89.25107083525869 95.77430795003767 0.6999999999999931
    vertex 123.45107083525868 24.974307950037666 0.6999999999999931
    vertex 123.45107083525868 95.77430795003767 0.6999999999999931
  endloop
endfacet
facet normal -1.0 0.0 -0.0
  outer loop
    vertex 123.45107083525868 95.77430795003767 5.3
    vertex 123.45107083525868 24.974307950037666 0.6999999999999931
    vertex 123.45107083525868 24.974307950037666 5.3
  endloop
endfacet
facet normal -1.0 0.0 -0.0
  outer loop
    vertex 123.45107083525868 24.974307950037666 0.6999999999999931
    vertex 123.45107083525868 95.77430795003767 5.3
    vertex 123.45107083525868 95.77430795003767 0.6999999999999931
  endloop
endfacet
facet normal 1.0 0.0 0.0
  outer loop
    vertex 89.25107083525869 95.77430795003767 0.6999999999999931
    vertex 89.25107083525869 24.974307950037666 5.3
    vertex 89.25107083525869 24.974307950037666 0.6999999999999931
  endloop
endfacet
facet normal 1.0 0.0 0.0
  outer loop
    vertex 89.25107083525869 24.974307950037666 5.3
    vertex 89.25107083525869 95.77430795003767 0.6999999999999931
    vertex 89.25107083525869 95.77430795003767 5.3
  endloop
endfacet
endsolid Housing
